<mxfile host="Electron" agent="Mozilla/5.0 (Windows NT 10.0; Win64; x64) AppleWebKit/537.36 (KHTML, like Gecko) draw.io/27.0.9 Chrome/134.0.6998.205 Electron/35.4.0 Safari/537.36" version="27.0.9">
  <diagram name="Page-1" id="vNBpub8h4gPJ7zZifBK5">
    <mxGraphModel dx="1626" dy="1136" grid="0" gridSize="10" guides="1" tooltips="1" connect="1" arrows="1" fold="1" page="0" pageScale="1" pageWidth="850" pageHeight="1100" background="light-dark(#FFFFFF,#FFFFFF)" math="0" shadow="0">
      <root>
        <mxCell id="0" />
        <mxCell id="1" parent="0" />
        <mxCell id="Y-jfnIZlCBl2N6Mui_qn-2" value="High Level Architecture" style="text;html=1;align=center;verticalAlign=middle;resizable=0;points=[];autosize=1;strokeColor=none;fillColor=none;fontSize=35;fontColor=light-dark(#000000,#101010);" parent="1" vertex="1">
          <mxGeometry x="-59" y="-43" width="380" height="60" as="geometry" />
        </mxCell>
        <mxCell id="Y-jfnIZlCBl2N6Mui_qn-15" style="edgeStyle=orthogonalEdgeStyle;rounded=0;orthogonalLoop=1;jettySize=auto;html=1;exitX=0;exitY=0.5;exitDx=0;exitDy=0;entryX=0.25;entryY=0;entryDx=0;entryDy=0;" parent="1" source="Y-jfnIZlCBl2N6Mui_qn-3" target="Y-jfnIZlCBl2N6Mui_qn-1" edge="1">
          <mxGeometry relative="1" as="geometry" />
        </mxCell>
        <mxCell id="Y-jfnIZlCBl2N6Mui_qn-3" value="&lt;font style=&quot;font-size: 24px;&quot;&gt;Sources&lt;/font&gt;" style="rounded=0;whiteSpace=wrap;html=1;fillColor=light-dark(#FFFFFF,#FFFFFF);strokeColor=none;fontColor=light-dark(#000000,#090909);glass=0;shadow=0;labelBackgroundColor=light-dark(#FFFFFF,#FFFFFF);" parent="1" vertex="1">
          <mxGeometry x="-20.01" y="70" width="90" height="60" as="geometry" />
        </mxCell>
        <mxCell id="Y-jfnIZlCBl2N6Mui_qn-86" value="" style="edgeStyle=orthogonalEdgeStyle;rounded=0;orthogonalLoop=1;jettySize=auto;html=1;" parent="1" source="Y-jfnIZlCBl2N6Mui_qn-4" target="Y-jfnIZlCBl2N6Mui_qn-81" edge="1">
          <mxGeometry relative="1" as="geometry" />
        </mxCell>
        <mxCell id="Y-jfnIZlCBl2N6Mui_qn-4" value="" style="rounded=0;whiteSpace=wrap;html=1;strokeColor=light-dark(#000000,#8F8F8F);fillColor=none;dashed=1;gradientColor=#b3b3b3;" parent="1" vertex="1">
          <mxGeometry x="150" y="110" width="590" height="540" as="geometry" />
        </mxCell>
        <mxCell id="Y-jfnIZlCBl2N6Mui_qn-5" value="&lt;font style=&quot;font-size: 24px;&quot;&gt;Data Warehouse&lt;/font&gt;" style="rounded=0;whiteSpace=wrap;html=1;strokeColor=none;fillColor=none;fontColor=light-dark(#000000,#292929);" parent="1" vertex="1">
          <mxGeometry x="345" y="60" width="200" height="60" as="geometry" />
        </mxCell>
        <mxCell id="Y-jfnIZlCBl2N6Mui_qn-6" value="&lt;font style=&quot;font-size: 20px;&quot;&gt;Bronze Layer&lt;/font&gt;" style="rounded=0;whiteSpace=wrap;html=1;fillColor=#fad7ac;strokeColor=#b46504;" parent="1" vertex="1">
          <mxGeometry x="190" y="150" width="155" height="30" as="geometry" />
        </mxCell>
        <mxCell id="Y-jfnIZlCBl2N6Mui_qn-7" value="" style="rounded=0;whiteSpace=wrap;html=1;fillColor=none;strokeColor=light-dark(#000000,#805C5C);fontColor=#ffffff;" parent="1" vertex="1">
          <mxGeometry x="190" y="200" width="155" height="440" as="geometry" />
        </mxCell>
        <mxCell id="Y-jfnIZlCBl2N6Mui_qn-8" value="&lt;span style=&quot;font-size: 20px;&quot;&gt;Silver Layer&lt;/span&gt;" style="rounded=0;whiteSpace=wrap;html=1;fillColor=#f5f5f5;strokeColor=#666666;gradientColor=#b3b3b3;" parent="1" vertex="1">
          <mxGeometry x="367.5" y="150" width="155" height="30" as="geometry" />
        </mxCell>
        <mxCell id="Y-jfnIZlCBl2N6Mui_qn-9" value="" style="rounded=0;whiteSpace=wrap;html=1;fillColor=none;strokeColor=light-dark(#000000,#807378);fontColor=#ffffff;" parent="1" vertex="1">
          <mxGeometry x="367.5" y="200" width="155" height="440" as="geometry" />
        </mxCell>
        <mxCell id="Y-jfnIZlCBl2N6Mui_qn-11" value="" style="rounded=0;whiteSpace=wrap;html=1;fillColor=none;strokeColor=light-dark(#FFF2CC,#73761B);" parent="1" vertex="1">
          <mxGeometry x="550" y="200" width="155" height="440" as="geometry" />
        </mxCell>
        <mxCell id="Y-jfnIZlCBl2N6Mui_qn-12" style="edgeStyle=orthogonalEdgeStyle;rounded=0;orthogonalLoop=1;jettySize=auto;html=1;exitX=0.25;exitY=1;exitDx=0;exitDy=0;entryX=0.342;entryY=0.873;entryDx=0;entryDy=0;entryPerimeter=0;" parent="1" edge="1">
          <mxGeometry relative="1" as="geometry">
            <mxPoint x="613.75" y="180" as="sourcePoint" />
            <mxPoint x="628.0100000000002" y="176.19000000000005" as="targetPoint" />
          </mxGeometry>
        </mxCell>
        <mxCell id="Y-jfnIZlCBl2N6Mui_qn-13" style="edgeStyle=orthogonalEdgeStyle;rounded=0;orthogonalLoop=1;jettySize=auto;html=1;exitX=0.5;exitY=1;exitDx=0;exitDy=0;" parent="1" edge="1">
          <mxGeometry relative="1" as="geometry">
            <mxPoint x="652.5" y="180" as="sourcePoint" />
            <mxPoint x="652.5" y="180" as="targetPoint" />
          </mxGeometry>
        </mxCell>
        <mxCell id="Y-jfnIZlCBl2N6Mui_qn-14" value="&lt;span style=&quot;font-size: 20px;&quot;&gt;Gold Layer&lt;/span&gt;" style="rounded=0;whiteSpace=wrap;html=1;fillColor=light-dark(#FFF2CC,#F1F73D);strokeColor=#d6b656;gradientColor=#ffd966;" parent="1" vertex="1">
          <mxGeometry x="545" y="150" width="155" height="30" as="geometry" />
        </mxCell>
        <mxCell id="Y-jfnIZlCBl2N6Mui_qn-18" value="" style="shape=image;imageAspect=0;aspect=fixed;verticalLabelPosition=bottom;verticalAlign=top;image=data:image/png,iVBORw0KGgoAAAANSUhEUgAAAkQAAAGDCAMAAAD9O//5AAAABGdBTUEAALGPC/xhBQAAAAFzUkdCAK7OHOkAAAAJcEhZcwAADsQAAA7EAZUrDhsAAAIQUExURUxpceC3NO3gQuC3NOC3NOC3NO3gQu3gQuzbQOC3NOC3NO3gQuC3NOC3NOC3NOzbQOC3NO3gQuC3NOC3NOC3NOC3NO3gQu3gQuzdQezeQezdQe3gQuvZQO3fQu3gQuC3NOzeQeC3NOC3NO3fQuC3NOvZP+C3NO3gQuC3NO3gQu3gQu3gQuC3NO3gQuC3NOC3NO3gQu3gQu3gQuC3NO3gQu3gQu3gQu3gQu3gQu3gQuzcQO3gQu3gQu3fQuC3NOC3NO3gQuC3NOC3NOC3NOC3NO3gQu3fQuC3NOC3NO3gQuvaQOnUPuC3NOC3NOzbQOC3NOC3NOzdQeC3NO3fQuC3NOC3NOC3NOC3NOC3NOC3NO3fQuC3NOC3NO3gQuC3NO3fQuC3NOC3NOC3NOC3NOC3NOC3NOC3NO3fQuC3NOC3NOC3NOC3NOC3NO3gQuC3NOC3NOnRPeC3NOfOPOC3NOrYP+C3NOC4NOC3NOC3NOPBN+C3NOC4NOC3NOO/N+C3NO3fQuC3NOjPPOnUPuK8NuzdQeG6NeXGOe3gQuC3NOvZP+G6NeG5NerXP+3fQuC4NOG7NeK+NuPBN+K8NufMO+rVPuTEOOfOPOvZQOvYP+zdQeXGOezcQebJOufLO+jPPObKO+rWP+vbQOTDOOXHOenSPejRPeG8NuzbQOnUPuO/N+rYP+rWPuO/NunTPenTPuzeQWVW02sAAACHdFJOUwAEBPmN+/n9XFLtINMCClo++/04HDBO80xWPAZY89nz+0zx+9cgSqtE4yS592afw0xWCCL1EttAgwIGy++x1RbpqSBoTj79iw48WlRQflg6XljP2bXZmxq/pWwUHnBm13AyVpk84aNqRonBQINu7wxSu/ty+0hSQudSj/vR+2RKsUz7Uvn7+96bl/sAAARRSURBVHja7dmFUhxZGIZhCMsAAwkSiLu7bVw2yUqymqy7u7u7dxOYgYS4rbvd4lbtHSzdXfV39fNcwvneOnNmpqUFAAAAAAAAAAAAAAAAAAAAAAAAAAAAAAAAAAAAAAAAAAAAAAAAAAAAAAAAAAAAAAAAAAAAAAAAAAAAAAAAAAAAAAAAqqT16r7FXZOy+MnBVudHyysr7lu2sK19UtqW9GxYNc0ZVtzUoadfTjOpP3GlY6x2Q88uS7Ma2DjkIKts+l1pDja6iyps/2t5NJQO3O1dVF0Pr8slorS+yllW1fX3pjnZ4Jt+ZV9E9bwi6hl0mhX1eHteES3sc5oV9XFeDaVt1zrNinojt4jau5xmNU07KCIyeuddEZHtHnrrw1REFdK6v++aWw5fkaf3P62nIqpQQkMv3l4fSCMTUXCDzz2VRiei0KYefb696ASaI5PWFFEJvHBV0QmdOHX65OgknZw4NSai6B4ruqGxb4YbSQaN3y8eE1FoD9xZcEPHRzMl9F9Gf4+LKPKD6NG2ghs6k+RgdFxEcT3YU/BzaDTJxV9fiSisW9cVG9GlRj4R/fO1iML+yniw2IZ+Hk5y8vkX1grqnoI/zb5v5BXRl59ZK6jpS4qN6Ie8Gkpqn1grqBUFfze7mFtE/bdZK6ibi/3DY+TH3CLq6LRWUF2FRtQ8f05ElYqoOXIsX2PjExcSEVUnoub4+cvfnh3O1ZkLjURElYmoefyn7/IcvAgiih3RidPnkvBEFDqi3/5oJCIiS0R/nk0SEZElorFfExGRKaIPJhoiIltEH/2SiIhM3n49ERHZvPdmWSI6dKO1gnp1UVkiWnSTtYKat7QsES2dZ62gOju8iRARIhKRiESEiBARIhKRiESEiBARIhKRiESEiBARIhKRiESEiBARIhKRiESEiBARIhKRiESEiBARIhKRiESEiBARIhKRiESEiBARIhKRiESEiBARIhKRiESEiBARIhKRiESEiBARIhKRiESEiBCRiEQkIhGJCBEhIhGJSEQiEhEiQkQiEpGIRCQiRISIRCQiEYlIRIgIEYlIRCISkYgQESISkYhEJCIRISJEJCIRiUhEIkJEiEhEIhKRiESEiBCRiEQkIhGJCBEhIhGJSEQiEhEiQkQiEpGIRCQi/o/e8kTUa62gZveXJaL+2dYKakatLBHVZlgrqOtmliWimTdYK6juBWWJaEG3tYKau7IsEa2ca62oNm8tR0NbN9sqrG1ryxHR2m22imvH6jI0tHqHpQKbsn5v/Ib2rp9iqci2PHQgekMHXtpip+B30aY9of/86NizyT0U3q7undvD/nJd276ze5eNynAZrbl/3x3zax3B1OY/su+ZNa6h0ti9fM6s3s5Qjsyas3y3ZQAAAAAAAAAAAAAAAAAAAAAAAAAAAAAAAAAAAAAAAAAAAAAAAAAAAAAAAAAAAAAAAAAAAAAAAAAAAAAAAAAAAAAAAIjmXy2pPtLzAZiYAAAAAElFTkSuQmCC;" parent="1" vertex="1">
          <mxGeometry x="-34.95" y="160" width="119.89" height="80" as="geometry" />
        </mxCell>
        <mxCell id="Y-jfnIZlCBl2N6Mui_qn-21" value="" style="shape=image;imageAspect=0;aspect=fixed;verticalLabelPosition=bottom;verticalAlign=top;image=data:image/png,iVBORw0KGgoAAAANSUhEUgAAAkQAAAGDCAMAAAD9O//5AAAABGdBTUEAALGPC/xhBQAAAAFzUkdCAK7OHOkAAAAJcEhZcwAADsQAAA7EAZUrDhsAAAIQUExURUxpceC3NO3gQuC3NOC3NOC3NO3gQu3gQuzbQOC3NOC3NO3gQuC3NOC3NOC3NOzbQOC3NO3gQuC3NOC3NOC3NOC3NO3gQu3gQuzdQezeQezdQe3gQuvZQO3fQu3gQuC3NOzeQeC3NOC3NO3fQuC3NOvZP+C3NO3gQuC3NO3gQu3gQu3gQuC3NO3gQuC3NOC3NO3gQu3gQu3gQuC3NO3gQu3gQu3gQu3gQu3gQu3gQuzcQO3gQu3gQu3fQuC3NOC3NO3gQuC3NOC3NOC3NOC3NO3gQu3fQuC3NOC3NO3gQuvaQOnUPuC3NOC3NOzbQOC3NOC3NOzdQeC3NO3fQuC3NOC3NOC3NOC3NOC3NOC3NO3fQuC3NOC3NO3gQuC3NO3fQuC3NOC3NOC3NOC3NOC3NOC3NOC3NO3fQuC3NOC3NOC3NOC3NOC3NO3gQuC3NOC3NOnRPeC3NOfOPOC3NOrYP+C3NOC4NOC3NOC3NOPBN+C3NOC4NOC3NOO/N+C3NO3fQuC3NOjPPOnUPuK8NuzdQeG6NeXGOe3gQuC3NOvZP+G6NeG5NerXP+3fQuC4NOG7NeK+NuPBN+K8NufMO+rVPuTEOOfOPOvZQOvYP+zdQeXGOezcQebJOufLO+jPPObKO+rWP+vbQOTDOOXHOenSPejRPeG8NuzbQOnUPuO/N+rYP+rWPuO/NunTPenTPuzeQWVW02sAAACHdFJOUwAEBPmN+/n9XFLtINMCClo++/04HDBO80xWPAZY89nz+0zx+9cgSqtE4yS592afw0xWCCL1EttAgwIGy++x1RbpqSBoTj79iw48WlRQflg6XljP2bXZmxq/pWwUHnBm13AyVpk84aNqRonBQINu7wxSu/ty+0hSQudSj/vR+2RKsUz7Uvn7+96bl/sAAARRSURBVHja7dmFUhxZGIZhCMsAAwkSiLu7bVw2yUqymqy7u7u7dxOYgYS4rbvd4lbtHSzdXfV39fNcwvneOnNmpqUFAAAAAAAAAAAAAAAAAAAAAAAAAAAAAAAAAAAAAAAAAAAAAAAAAAAAAAAAAAAAAAAAAAAAAAAAAAAAAAAAAAAAAAAAqqT16r7FXZOy+MnBVudHyysr7lu2sK19UtqW9GxYNc0ZVtzUoadfTjOpP3GlY6x2Q88uS7Ma2DjkIKts+l1pDja6iyps/2t5NJQO3O1dVF0Pr8slorS+yllW1fX3pjnZ4Jt+ZV9E9bwi6hl0mhX1eHteES3sc5oV9XFeDaVt1zrNinojt4jau5xmNU07KCIyeuddEZHtHnrrw1REFdK6v++aWw5fkaf3P62nIqpQQkMv3l4fSCMTUXCDzz2VRiei0KYefb696ASaI5PWFFEJvHBV0QmdOHX65OgknZw4NSai6B4ruqGxb4YbSQaN3y8eE1FoD9xZcEPHRzMl9F9Gf4+LKPKD6NG2ghs6k+RgdFxEcT3YU/BzaDTJxV9fiSisW9cVG9GlRj4R/fO1iML+yniw2IZ+Hk5y8vkX1grqnoI/zb5v5BXRl59ZK6jpS4qN6Ie8Gkpqn1grqBUFfze7mFtE/bdZK6ibi/3DY+TH3CLq6LRWUF2FRtQ8f05ElYqoOXIsX2PjExcSEVUnoub4+cvfnh3O1ZkLjURElYmoefyn7/IcvAgiih3RidPnkvBEFDqi3/5oJCIiS0R/nk0SEZElorFfExGRKaIPJhoiIltEH/2SiIhM3n49ERHZvPdmWSI6dKO1gnp1UVkiWnSTtYKat7QsES2dZ62gOju8iRARIhKRiESEiBARIhKRiESEiBARIhKRiESEiBARIhKRiESEiBARIhKRiESEiBARIhKRiESEiBARIhKRiESEiBARIhKRiESEiBARIhKRiESEiBARIhKRiESEiBARIhKRiESEiBARIhKRiESEiBCRiEQkIhGJCBEhIhGJSEQiEhEiQkQiEpGIRCQiRISIRCQiEYlIRIgIEYlIRCISkYgQESISkYhEJCIRISJEJCIRiUhEIkJEiEhEIhKRiESEiBCRiEQkIhGJCBEhIhGJSEQiEhEiQkQiEpGIRCQi/o/e8kTUa62gZveXJaL+2dYKakatLBHVZlgrqOtmliWimTdYK6juBWWJaEG3tYKau7IsEa2ca62oNm8tR0NbN9sqrG1ryxHR2m22imvH6jI0tHqHpQKbsn5v/Ib2rp9iqci2PHQgekMHXtpip+B30aY9of/86NizyT0U3q7undvD/nJd276ze5eNynAZrbl/3x3zax3B1OY/su+ZNa6h0ti9fM6s3s5Qjsyas3y3ZQAAAAAAAAAAAAAAAAAAAAAAAAAAAAAAAAAAAAAAAAAAAAAAAAAAAAAAAAAAAAAAAAAAAAAAAAAAAAAAAAAAAAAAAIjmXy2pPtLzAZiYAAAAAElFTkSuQmCC;" parent="1" vertex="1">
          <mxGeometry x="-34.94" y="240" width="119.89" height="80" as="geometry" />
        </mxCell>
        <mxCell id="Y-jfnIZlCBl2N6Mui_qn-22" value="CRM" style="rounded=0;whiteSpace=wrap;html=1;strokeColor=none;" parent="1" vertex="1">
          <mxGeometry x="-5.009999999999998" y="210" width="60" height="20" as="geometry" />
        </mxCell>
        <mxCell id="Y-jfnIZlCBl2N6Mui_qn-32" style="edgeStyle=orthogonalEdgeStyle;rounded=0;orthogonalLoop=1;jettySize=auto;html=1;" parent="1" source="Y-jfnIZlCBl2N6Mui_qn-24" target="Y-jfnIZlCBl2N6Mui_qn-21" edge="1">
          <mxGeometry relative="1" as="geometry" />
        </mxCell>
        <mxCell id="Y-jfnIZlCBl2N6Mui_qn-24" value="ERP" style="rounded=0;whiteSpace=wrap;html=1;strokeColor=none;" parent="1" vertex="1">
          <mxGeometry x="-5" y="300" width="60" height="20" as="geometry" />
        </mxCell>
        <mxCell id="Y-jfnIZlCBl2N6Mui_qn-26" value="" style="endArrow=none;html=1;rounded=0;" parent="1" source="Y-jfnIZlCBl2N6Mui_qn-1" edge="1">
          <mxGeometry width="50" height="50" relative="1" as="geometry">
            <mxPoint x="-10.010000000000003" y="350" as="sourcePoint" />
            <mxPoint x="59.989999999999995" y="350" as="targetPoint" />
            <Array as="points">
              <mxPoint x="29.989999999999995" y="350" />
              <mxPoint x="40.05" y="350" />
            </Array>
          </mxGeometry>
        </mxCell>
        <mxCell id="Y-jfnIZlCBl2N6Mui_qn-27" value="&lt;font style=&quot;font-size: 10px;&quot;&gt;Object Type - CSV Files&lt;/font&gt;" style="rounded=0;whiteSpace=wrap;html=1;strokeColor=none;fillColor=none;fontColor=light-dark(#000000,#090909);" parent="1" vertex="1">
          <mxGeometry x="-29.990000000000002" y="360" width="110" height="30" as="geometry" />
        </mxCell>
        <mxCell id="Y-jfnIZlCBl2N6Mui_qn-29" value="&lt;span style=&quot;font-size: 10px;&quot;&gt;Interface = Files in Folders&lt;/span&gt;" style="rounded=0;whiteSpace=wrap;html=1;strokeColor=none;fontColor=light-dark(#000000,#0D0D0D);fillColor=none;" parent="1" vertex="1">
          <mxGeometry x="-29.990000000000002" y="390" width="130" height="30" as="geometry" />
        </mxCell>
        <mxCell id="Y-jfnIZlCBl2N6Mui_qn-35" value="" style="endArrow=none;html=1;rounded=0;" parent="1" target="Y-jfnIZlCBl2N6Mui_qn-1" edge="1">
          <mxGeometry width="50" height="50" relative="1" as="geometry">
            <mxPoint x="-10.010000000000003" y="350" as="sourcePoint" />
            <mxPoint x="59.989999999999995" y="350" as="targetPoint" />
            <Array as="points" />
          </mxGeometry>
        </mxCell>
        <mxCell id="Y-jfnIZlCBl2N6Mui_qn-1" value="" style="whiteSpace=wrap;html=1;strokeColor=light-dark(#000000,#909E93);dashed=1;fillColor=none;" parent="1" vertex="1">
          <mxGeometry x="-50.01" y="110" width="150" height="370" as="geometry" />
        </mxCell>
        <mxCell id="Y-jfnIZlCBl2N6Mui_qn-44" value="" style="shape=image;verticalLabelPosition=bottom;labelBackgroundColor=default;verticalAlign=top;aspect=fixed;imageAspect=0;image=data:image/png,iVBORw0KGgoAAAANSUhEUgAAAOEAAADhCAMAAAAJbSJIAAAAwFBMVEWWSwD///+QPQCTRACURwCSQQDdy8GTRQDMr6CYTQCPOwD9+/j///2ZTwD8+fXiz77m1cbz6uCobTn48+2cVRDu4te1g1qhYCTRtaPdx7SveUv17ue5jGj59e/awq24iGDOrpTk0sLBmHXr3tHLq5SkZS6rcT7XvabRspfIpIe7j26velPKp4mjYymgXBu3h2OueFKweku8jV24jXChXRircTvDnYOobUDAlXCgXyqdVgCrc0vHpY/Lp4PZw7eLMQDzRfDoAAARZ0lEQVR4nN1da2OquBZVktwMyvuh5SEqVIGq9PZOp+30zL3z///VBXxUIUBAVJg1H860M8eyGpLsnb32ymB4Q3CCanlLw3D8pxS//Zb+4fuO4xiGuPQ82bJUVRC4Gz7E4AafyQmWZwShvVE0OBqNGIZBGTApRgkQZrWp8u9XNzA86xZUW2Y4042tbe60AWIQwBAOaAAhxBggBPmdaW8NfdbqI7XGkFOXT687HiNAzYxAFQOAML+yn0S1reFsg+FYXi5eo1E8ak2pZYkCxIyi18VSHl//dNcy5GTHVXiEcCvcLnhihHjFda5leRVDQXQVFrQ0ckSWEAB29WKoj2A41gMTMOBm5M5oAoZRFp5wV4ZjKVwBBt+e3YklQlNXakSyCUM9VDC6w+BlSeJVqN+BobVYofvTO5JEq8C6KUNBnIBH0TuQZPB8WWt1rcPQ2k7RHedeEQBY+TVmJD1D3WUfO3w/gChaUL+stAy9CewKvwQQDVy5TYb6HIFHk8og/oW7VONIw1B+wV3jlwKxf1EEO9UMhZBHj+ZSgHg++tczFLUuzb8sIKN41zGUbabD/BJg8FG+dZQzNLSuvqBnYFZSU4Zjt8sv6A8wXDRjKK96MIB7MJPis51ihiLfgQiNFigqXHAKGfq3y9xvAcwvazJcdH0NzQICpxbDBfPoJ64NyJApkhn6vVljzgChQc3Q6McukQUckA45SAz1fi0yP4AaIaMiMJyterRNXAKs87UAAsOvPk7CA5iAgqE0evRjXgOcm4o5hpzS23c0AdhUMuzlRnEGsKxgOF71dB09Ar9VMDR6PoRxEK6XM5x38sypDlBYynDG9/wljbf9XSnDfm8VewC5jOFz76dhvOv/q4zhS++nYRXDda+3+z3KGfZ9N0xQznD6j2e4/sczfP3Hz8N//m4h9u+MLYdMYJphqPZ/HsLpsIzh0Ow9ReSWM3R6PxGRV85QjXo+iHg9LGc4XPR8EHNn+zmGQr8HEZtZQvnTRKfXG0Z2FhJPhN96nEGhrxwdAkO5vycZeJqXLZIqM2Jfg1M4INS6idW1HtZHUyBSjTTD8HCI4/aSIrMXnXCzMob/OVSn5j2kyPx3/+yqWMZwd5AXcf0bReZ4Euz/r5ThMWzlwn5RhOiki1qXn9NEJ8Vm0KdiPsQnGaY+KmfI/EjERL43Wz/QfraJr7/LGWL+R8somz15U9HmRw+tD8rHUIMXpZst6MHmj0Fwpk94BeXnNBq8jF2lVdeHETK78weO84ZKhnB3rrnlFt1UsR8BBovzUNSCsJph9qBDnnT3VcVgctGRICR1l2qGA5QRpYjKqJMbBxytL8OX4UtyQEHBcIAyEjjOj7onxoSM5mQUUPuMoZzhngdEmd9NPIN33XpXMVr5WYXXYl/ALmd4+PtwkBMyCo7Znc4ggNZOLtc95nxUDIlaTU6aM12I5CAaTQgtiKdDQjqG8Vue18DFiUn4Du7R3FwMCFAUEjq6hJ98j5Jh/D9+kXpRBNHWHtdmiZE2N0iPZa1/jnmpGQ6QSe7ws/wNumcf9xGYQRuf/Eji9GyJoGc4wIMC+XtM0sR36cU/AgIGmE5BvyHnXjxKDYbxljovbGJUjXkEbmAWQWCHEZ7aTmGroZeJneswjJflsgY/dbk1tdFtZyVGI/7XQipu+hFCmHmAegzjpXlT1uXPqdKzCZmbjGX8ZiJoPktWmY+LOM1VksoZsvknxaCq33YsBfMdi9oyb9nbtyB2Nw+qfCIkkxBN0sSlGSCWtANdgrOWga1o4MrhTK1pcPT5EoilQ5dCt4kzpAHD+FXln2kMVDjLM8JXZZBYQWFYZ0RhOmwIfX/+vhB1Kn8h2WXJUWQThmkgH1L2vw85QTd8d7LT+Di+OthggT3wEYev96ZYIwT59z/moSNZY1rvJM8uNB9pqvqCCMyrmoozmMm6t3T8YBuG7oudYD45IP3KdcPtwndET7fq+bKMjbeSLOAKXRsAa6ddH65GsJ7L7Tmu0iZiRnO9FtypmiOOiwcV2fiV+lIIwGrbwAenHXhuVJ2kljOcUAQoEKHdQr6lESARYy+cUnn/lDP8oNOaQMR8htI1Dlw1oYrubkSZfpczDKgPgOORjOa+foehHHuLSVTDuamcYa1uhCTof587tPtkE3C6P3+v6XeHSrsRhKItv5AlYEba60Jqw//vEmNZWryyI1Q3DYXK5edklQpfDc7T4rFk+E87EOWWdktBFhdzhW8W4/6USskMpYYnhklcCQZT03W8qxYg1fNdc8qC5okKzsyaLEPuKoEpxCCOM8Hq5dmR5Bp+q9zMkj3n+Xcl/etXZSfAznx2Tk8jtqBNTN05GX76ubHdcOH7iaVujKV0wDL5Skzddxeha082nxHLpO6gLfzsbDiSVwxtWjvZ3huuoiS72GcV8IBDfnH4TwA3tnTNI6sQJjGU+ywwhVpuFSCovoIeU8xWzcgMuUlvKRLEl0TlnjrtVCGNHmBNiDsyDPfru95PhSmMSAdm2ch7/8eyj94fWNtvFFxpXPrH4cBE7B9FyB6OkaxS5d77sbzdO4qYP271QSnDaH78N0nr1XIDVqd38738rO3HpqdHdm1x1mueFpllhXKP+Yl6hEn3JCZkQMY9BfmcWcEQgrPINcC9eFMBf1YCFFGFvhRedEbpn91/UyFzpr0cjnew8sz7QoQxDh8rvagGYC9EIy6qPtXPtGVIqy7PRjh6u8gHDYambgGjiwyE86Mu6IRIgGh3mUuk4SZFZQaYlwGsEA66+K5CxAeXD6qmZRea2hOaZ05YErfyB/PJAqLvbEVT2HfdUVXXUPY4Zyi73XIsZ9htNpsfv+1Hga5+yNi5TEt9jrrgqj9I619/Brma6sw8vGaUFVL0lj/2FJzJ4PEDGU+/uZjPdOU1nTZROREAO1KVUA+10SMHEoLRdEEqlJwlCrQMB5hdEj5pOBY3g7uIvUj0EP8qEY+ZnbPFnpph/DpsyeUW1ZlorZze1qMHorlBLozM3POohJ5hkpMUVc4s55W/ozgRopFmF96J5F3meXUYXkbtGajGx/foDiyT+l30sSwuay0y0r1aDOO4zyyTJcj+fIpv98ImBS24Kx68BJ6SLVvXY5i03YSl5TLBC+Yrtn11YlLd4T9tXy8tvcpuvkmitk8URFGRVPiI9Go5ra2r5Q4Xy/1OUVheaIQyUjlDk7TZQUYxKEqBlriY774hor/4MEcNx9ygtpoHIkWZVfCnxMSuAcNkOu4cOunZTBYD11xFLGb2dzxWcoV7YgjzkTJxg6VM+YOC94LEtZzhpuiBIKpxyRI3numS+BS+bJSIx+f3dB4Vice7OkcMTAqpL6EvSvKMXu2gBtPC+LGxJiqej25NcWKixBRmquyJjh8snp/Djw83xsdH+PwcBIkqUVZnArXi8vSh0gtfEh9f4dcGEaP4dxRCkWEFq/Jd+DrvS8jwrnd3SdsPxpLNVp0bVejaKov48VL++SE9RIEpSO6fFOFFOcO/aA4rIAI7994kheVLRBc9teMqGE/Jb5dm02oFnGXMv6lD4HKGPn1zevy64l+3l2By1vLjE9SJfZnLy5Guc0rGCGmbhVT3Wkl6duLW1Oq2dZZrE+u7XafX9q7mftvyb+HQiFM7oq/yTXSbnIvCpEUJKx++ZM2u3ko4VZaePlYANczKss2vWYY62+RT9zzjVBVPf9kLw7NqBGAnjGeW5CzszwjVF5WePQWfWRlyeporbedTFWYca64nX1tHomoVESxd8rdfkziGhde3h+WEbTmGXhvCvUO+EK8RkP3erSfuX09PTyeNYiJK9ONv/PUyWU+/2Xi9YpqnXNmfzGeXvbwmKmy5QpFIEQ8NThdAiC67qgfmKcsnz7DX1pAwf5UOQddmdN2SphgwbwxJVO5tu1ZJowYiHH6SGHKvPaWYFwgXMBwKq854fNQBMkm7cIbh0Zhv2kOK6G2/+Y5LI+8/Difc1rp3FNH6EF0sy10Fjw0n6rpncxGZx2jNLs0Pd8rxVRbeerVpMPPTgw/Kq9xnYvdtFyUmZEC0PT12UKHcO79fz+jLbbKA/6msqNMqV8HRmcpIzlWuOomLQu4zqnIcgNpZLZLbZo1DugcMtmcEZLZCm5j4Js7Pv6GTvDU6BMiY56FocrchhavgRXDHBV2+fRxlXOm2ldrEhCHkLwN0y+2qOSQAX5f5bupETuH8kbuSVZ6DDnIEYJ7RGHhstTZx78CDp9lzXu8Vd2x3BOA1mwvq+zZtKhclsM4dZXtfHRJgQsTauVxXjvbrPp1PFFjlz7FlF3djXYUMSzDL0Q8EaZ2w8DdBRzPzlburvbKAAH+S6u3LwXHnpvX6gmzO4TOB9EhTwdQ1kVxq939O/6ndzCDeEk/oLcd80NuKGXZONqYT3LPqTQ2/NpRfbw4k47f1zgpMCBg8KZJ/6RfSvTqOdIAtVApZ/kQD9xIMY4R3NtHzMsHYv5w3tTz3IJoUC/csw1XgzcWJEI1Yc1tiTedlneNrugqW6S/jX5/uvLB/M62Z7WXIYTQaKR9iqZ9ROMgufDUZJp7nxEX1B8lY8ldYdRDJQQBgtA4r9BBjh5AW1HekgyPz8nyOxFIKvtYRbkGEmSoTB1MzdPQqLxhOVEiLehPPPQxpzOjGlueE9gqOUsleA24YMcyI/Xyh9BVcbsgG3M1cBQHaVI7jHtxYNp7cNy0VJ6aOH0e/jwyfkwvI3h0Es+/mh7+0KIvHnPhZFHk09dzDI6VwvSZBkCUj2H69Tt7WymoaRZrGxuAP/7CspkXRdKWszcmruw0Mr5YNk+pPi43wm7sKQjTdNnC94sZjYTZTVdWSz2DF35gJwri2MHGY9Jm9l+3E5Qx3pfMHosGE0JBzVwiGCcv34CvvA8ZMdHdJ2w/Gyy+t0mi7QiNcnTdAxEzDRygwBcl9pwmh2rhbHSKglPV43ACJrSBlbtrSjcfxSGqTAof0tsHpwYalD4DLGdZRKcA4hJna/m1dMFNbwUSXQ/9cGbVChqFV21QQ4elLdYDVCKr+ZEe1hJfpI2mXC2G2jk9jYJpjyaDoF0UcWQMzz3F/aUyT3AxU3HjsNzsyTDSYMDK/AunaqcnJy8COg/hmse0gJ6DNMZyVeiVX0QRxfMmvX54NXa3n7px0Zqi68WwrLLiufQormXUhpza5+sbjfWNW/N7a7sIRl5Kny9ZslkZoZxCEJJSzZN2Tloa/cF8/NaaV1rDcTZ05hm3J2g7dTPFEYvkkyN6tlHOsVrtpHI3zbNqG15YyMbm0Ohtw5RVDTj2pNw1gIVr/USiX5BE0Ub2+8Tiv+yIwtN47UZ1oArzLL3AkXVsbFqYPAQS0Nx433BQfDQiWBDJEhsOeXSR7AEldWsSwl5c6j0i3jBUy7N8okq9RK2HYJ1VbAgiLqg+FDM9rjt0HJtdzyxkOJVI7fzeBiGY6lQyHak+MEyH6Kjn9K2MYJxq50lUHUV4ArGDYeeFesoZOypPuCoZDLoCdno3ou8qWpIrhcCjb3d03AHQrD4eqGcaL6q9uvqqYmVCUNWkYDofGrnscMaMsaZ6djuFw7O86Yrh3AKbzzKFnmNx19tmZG48hAJsK+UQDhjGkeQdMBVPp5VcNG5k6DON19b/fDzUVTG0Fo3qV6HoME1PBCXzYjISYYW2yrWB7DIfpZcDsI0hixE8a3E7YgGEMOTAHd73WGQKGfWtWrmzGMCHpTHC9ul5jdhgxgxejqb1IY4bDpFnzec2DG8n2TuyAZi6ukQ1cwzCBZbhr7TZy2uQubs0MxSu9Ya5lOExcZKQWPQVTbomJyCiyg/L7nO/GMAWnLp/m00SEec2lYvs7sDC/sp8kqkuBKdAWwz1Uz9na5pSHNQtmh1Ic5HdmYv7SqiqgXYYpuJksGU+hvVlpA+bMUZAIJn4dmYGmbOzQN6Qal9FR4wYMTxgLqqVLhvP0WyGeHFGSLVW4oY7s/9miRd6opppqAAAAAElFTkSuQmCC;" parent="1" vertex="1">
          <mxGeometry x="232.5" y="270" width="70" height="70" as="geometry" />
        </mxCell>
        <mxCell id="Y-jfnIZlCBl2N6Mui_qn-45" value="" style="shape=image;verticalLabelPosition=bottom;labelBackgroundColor=default;verticalAlign=top;aspect=fixed;imageAspect=0;image=data:image/png,iVBORw0KGgoAAAANSUhEUgAAAOEAAADhCAMAAAAJbSJIAAAAM1BMVEXAwMD///+9vb3q6urBwcH8/Pzf39/5+fnHx8fLy8vExMTt7e3i4uLU1NTw8PDOzs7T09OkFaU/AAAMhklEQVR4nOWd25akKhBEbRTxiv7/1x4BrVJIIEEsYU68zK27x72wNCGDoPp7UpQxPtZ1PSm17f6bWmgcOWebKKVPXkP1xA+ljNdTOy/9UBGvqmbo+mVup5qzJ1ATE1Jeb2RdI8mqACnWbiMdE3OmI6TjNCu0EDKAtBr6eRqTYSYhZAIudNR8I9qtE2cJLu42IavbvkkId8Fs+rm+S3mLkI6zoEsPd8Zsurm+c8vGE7JpqZ6l+1KSfuKxlJGEvO2rn9B9Kbs2DjKG8Od4O2S1Qf6AkE3db+5NEJJ0U+iTJ4yQjusbo3eBrOawgQwhZO2Lw3dm7KeATySekM1NBnhKZGjRNyuWkL9+e15FmhnJiCPkcw6351WkwY0jhpDNeY3foY0R8XlEELb5fP50kaG+TzgO2fIJkd737vAQsjlrPinPreomrPMeQCXPMDoJ2wL4pKY4QtaVAliRxX6n2gnHfB+hpkhnvVOthPXbFx2oYQwknAoawF2WV6OFsEDAisCIMGGJgJVlFEHCukzAqoEeNxAhf/tKozUAsw2AkPZvX2i0yIIiLKAUtYqY1Y1JyAsG3GR8FE3Ccu9RIfM+NQhLfY5+pA+iTljwY0bJGESdsPghrCrmJiz5QapEWichbd6+wPvqnISFvyqkCHMRFlpyX6TNMTTC8j+GPsLl7ctLIDdh6W9DITdh9/blJdD/fQzXf/5JU8wqt0NuwvFfIHS+8dnbl5dA7qrtH3ghktlNWP7siXA3ISv+jeibARf/NDXW9g1COrx9jbeEWIkq/JOofwrBFeGlYET9QQoTsoJXMjoTB+rMjG9fZ7Sg5hPYXSt1LQPskepVm/qlzFfG0ZahLsLjg1ries2xUErdM2BeLOJnJbh2E36etqXdqN+l7sW9TvPtExf2uPlgMc9K1KmJmrnv8iwyfF8Ts2+tbfg+iVgp1Q1ZvtN61rgJh2vrpn372nE6N+9X4iO81q68z34Yr/bSbd7gJay6yxuzzdPFfog0F/eFqKn9hFp9zta3KVxaLwtrVDw5/ISGKWXM9VYlvWa5lHUKgtCsYOsc7cLmVgT1CncTHt9t2FGzYyS9MZHYyzAcYWN8O62XfHYGEbKYE6WjCMMRAqOYz+4nQlZgpvsppLGEgAduG8h2eBuSWHbmfSdDWEJoUUdonN8sV8kAb11np8c9mvBS7V1+2lufSPHpgy9pPD8H8YRbvWDbGbZB/mgv/peusuHp5XMAobhTrZsYaT13vyroSOXKVdBr5yBC9wY/OrbL408eQprFlTVAjflPGKH4NDp3hjHeLncTW+xw263ZugNORrMScRMCy92k8u4p5tOcON9E5Zp4wzA4NEfH1KX6t2D2FDOBOdwfziOCB5FNw+AKJIJQ7n9H7fFnvG5XOZzhoPKbNra2xiV8WPMBogjD9vhTNk4b6IDJwVJqBpEQFRKFxe37y6NdX8GBFDLLjNf11LbtrLQeUn/c/mGq65Gz0PCr0VVz3PC1iZfuo9FqOPnSVe752ra6MCIiJqHo6I3nuOsvJVWP/0SmFsekqyRw7onYphcgUXheQmw/ZoOMjG2K03ZzorNx3IQB7Zjt5TX/Zij5tIaUv+S6PHFrNwKRRf+jlGyaQ4t7tzcx3C8kCpFE+X863DZ2MdVuf/0xSXYF7XVystRKURRFp/l5dgXd2AOs0jmxVaUVbqtsVTpo9IV4dnbdNZjKmluWz0GlmCjw6nbug3NPzQvQF9AMwiQ+aFVOi2jZuVWZuqMQPyT/VMv43a1mXZe+i5uPQPLtsExsa/tE6Tr+LekCgbkGahKyLNa1YzUYHw3A9VWYCeMiwPcF+drK3VYCrdNDhLRUrzfpARrQm1iqw7SDKiu98la/lJn9cfi5nHXpkShVoon2sM8y9zrNMfMoDvFr/Jrcq4nr8TtejqtNiPSfe7Nzj2Hz+UKWq8cE0qnXyX3exO8bhZbzXjy/BxfveunpSTS9feU4XVqAo8e511231RRg3NO78Z1/zftqwsjef6lZ91qfN1HUa9dtGZkPI7la90avc09WpFf7Zc4hpqS7rhzKchNBqO9wo5kmCWs36DFlwPSejElITmnlh8yOJl0Q3sR93mTOs1hmXmGo875gvInHzBCYSmbgaTtEqs5M1qfHAhOyQwpZvmi95nCzkmYGjJPfIhPbIT2Vsuef0778YLWdcHGaKOB7wA2cWzv+2tL2FSEN5Cz9u2YCB3S59Q7Aoe1ufeEjSWzOS/GIOF9NSB/f5r8U8+jgptdtvNF2MVrZFeRUsPsvpTlxeMjQptO5zwnSZ0CBXgz7MAoxacF8kJK4jZd/UN0c6jbxmdooFwfKPTCYe1PS3XplM/CNwX4axCESbGzFwycVpjxYDmPem6B3V4yfBti9AWPedSeSoMMBLbtc4hxDGyOu3ykb1Es/hJ3xuJ9l2a/thHXv0cm2iyfWE4Vm3EH5KM/p7HwGxUqd0Sn8eyE/38p3xxO1TVfCPW2UqtNW5Tmru0lR/kactypdiRHnrHLnZO6O64uEDeQzYlPvvv1vZl++bU50D18KwkqdRPhDpq8oR5nbUjj3XoHk2Eo4kXPPWQonV1Ch7yYMCYkS1qAfWDC3QqIPqn21qKibScmP2fY+dOH7jjzexIgO/r69JTHcUdGHX48nNzEytEW52dAll5tNOhOj61t986uRKnjDhnGUzbGHpFPl3ru5tUh3RRluk9vhQrKI7vpV+RNxYIJs7e+fW14Bi0sGYSqjyW7Ja7YZw7LOsgw9PIq1ciVOwpXYDU1zfG0SGUfNmI6hB+KTHDOL5P+VsQXdJCzW8yVl+r4A11fJWcJmMCToayst5usrKHQPdO6VF9amBC7Sg4Q07969TdB5VubsaUfMLasFowOQOivvo6VWlOVLifR7McPdHdLjdVLcjfo9inR2E37eJwW52oS+bXnauAlPW9tKemmcnqKTz5t4KgrqHLr2GJ2bgNtD0pcqePr3Qp43lw5g608VvMyvMnPRQCLV+T2/zW/9uYkXK032+Zda9kqPyU3UvgLs0eUivbfZer2JcpOsloqdm+HrKyNYRu4wwCR/6PNkS0zKyyKat3SrZuQiEyaBh3T6ShJfcxtHUhnmIQamPsIpSp8a78SYlQGTNGYL7DjtHpcTBbnamD0S5scC/SEHIDYJi0DHI1Nfc/IXIhXom+CfhV501hds3EP3uJ6Rta93su4FpJnBxj2Zt/djsP3St08f3GWn53WXkFTBxbI4L1vpP6bc/r/VZiK41s8hiXQO4x77qQNTuttsl6I3PQNTBfWX6gUysHUZSeeJFTRS6QJTBY09DTrl/IRr70tH+tbdTDf3goTmJhr7UgDKVnbEUsNVw+L1Q0D7eWJSBd3hkJKST/OSIFNQsREZkuJvQsJB4zGZe8gwOpUpeCOehBxBNyj/A7eExcelChLEOO6irBbjuXcFMQ4k9XVNt7YT3sBiD4qPTxUM87SJlvXUzvO6LH3fdcPQaBqGruv7ZVlFwksd5uegrgD1O6mCXWQWHaXSoniV/MuoHyeC21yXeec8YNKsngfr8/IWjTfPAyZRLtNk4og08fvncr9lTqTIWMEkZ6sLRxvKbJ5MDB8rmOrEY+lo+5E5kU1LgP8r4YnHclfEs6GCMmcanQm5X5azQxp84vEenfjIHSvNe+EF73D9KXofP6ZrKKITUXVkCFwtfZcxV/PUicdiMBdUDLdHckvKjbmK78Tje44o6U5chDsxvFzZnYm33Xu6K8pwmyRIazt2L7WtiLLmcIV2VHKcj7V0Jg5pjG6/PPH4uOK9yt7K7LO6vRo/fWESGcY20zH0PzjxuCwTxlXIE48LPpkbCN2DfG0F2y+xJx4X+1GEJq8gYVFmoa/AQ7gshEUiwoA2wgIRLYBWwvxDvjRZm0hWwktcSP6yBLE4CUvKhiRgNquXsByLqeWYPz/hNtHIyWFikyuAxUsIH4qVl1xNXAShSH/JmtEfS+IlBANSchGp/GeJ+QkzDocET1yNIdzejTkyGic63yHM8sRjZBcMSyjHMRtIQhZ0lw9PKBrnebweIetlGkIVKvgyJAntRIcRbhpfdQuHDV8c4d7reoOONFbvXlrCv9CGXjK8qJ5IHOGfNCf+LANTGktjWz7RhEK87Z8/8bgalluxIrcI/z75Ko9gKvPe3Zyfu4SSUh3fl/jEY1yuoF8pCKVEYzNFdIeyuPmPc0YrGaGUaE7P6mC44GQghabaqymvKS2h0m7aE7kl7kTBQyL/ZG7r2Fwbt54g/EgmCqojjy2aannI3pPmo/8AAW2Ppg0hqCkAAAAASUVORK5CYII=;" parent="1" vertex="1">
          <mxGeometry x="420" y="270" width="70" height="70" as="geometry" />
        </mxCell>
        <mxCell id="Y-jfnIZlCBl2N6Mui_qn-46" value="" style="shape=image;verticalLabelPosition=bottom;labelBackgroundColor=default;verticalAlign=top;aspect=fixed;imageAspect=0;image=data:image/png,iVBORw0KGgoAAAANSUhEUgAAAOEAAADhCAMAAAAJbSJIAAAA5FBMVEX6sAX////gngT6rAD6rgDq6urw8PD7+/vloAD7xEXz8/P2rQX7vzf6vC76qgDrqxvk5OTppATrqxr5wUDxqQT//PX/+/P6sgDxsyr/+u3+9eL6uCP+7tD7xV781Iv95737wE/94rD93aX8znr+68z7vkT815L80YH7yGf+6cT+8tr7wlj82Jj+9uT95bf6uzr7vSf7ym/6tSfk2sT18uz15szmwXzxwmP70HP7yVvs1Kr3tz3vt0T91YH94KLz7N/p1rTut1HtyoXt6t/u0p/9zWPkph3k3MzhqDXhtF/hqz/jzKN/AAqSAAAXAklEQVR4nM2dCXebOhaAcSTHJLZJ8IYx3sAL3v3svnb6trZvm76Z+f//ZyTAWKArEIsT33PaJF7gfmjXXaRUHyvFpVZ9Bl7tds3hxHac8Ww1XRyblmUovhiG1TwupqvZ0nHsydDsdsFrlqOZUsaFYoDmYO64s+3RQJqGqGBPFEb8V7D3LvmQ0dzOXGc+MKNXLUUzpYQLXQH384NLyLDmUymy4tNq2DhuZ/Z8f7lwKZopxZ+VD2hOdj8p2C8waTKAlF5BmS4nZgmInmZKpShirfrjZrcyvGLLjRYHJQVqjHbDXkHN6KNXKsUQex8//evJKA8ugqkZ008fe8UAfcK8iANn2lJbT1b5eFdK9eXzYVMAMCDMgzgcWxrqqP0bAlKpq3rjB8Md5gW8EGZE7A5dgoeV2wMSRL311CAV1h1Co2YqYEiYBXGzbFI85U0AaSkSRNJNa82xdHVlRmiFeVEO0T5i5FO9DeAFUaFj0dHOCsgQSiEO3Ave2wHSiqp7iBQSzwaZAFnCdMT5CqHwtm8HGLTF4HeERusMgBHCFMT1AjFAbwl4raieYLSYSANGCZMQJ2eW740BvUHjikgYz0LG+DpHib8NI84XWgTnrQHZtugzase5FGCcEEbcr1CU5u0BYxWVMqIR0OfwK9U4IYS4xCh6s/cA5BHJnG6ZDsgTcojDc4zvnQDjbZEKsoYx3fm9Bp4whjjW4izvBRgdNHzB2jgFECJkEQeLeAG+IyBQUUkxLgZXvaHdIojwijjh133vCegjxu6O8SQJECa8IC65GvrOgLSiduIvXWrqIwgoIKzUauS/mVdD6506e733BYzKRTV0gimSCKmMKGBdfXh4UNnndj+AeqgaGuUh3HqAD74wiHcDGKim09/RNDvhyquienCZh3ry3d5BQtX8UlxlJXT9NvjwwBfinUiomleICnKzEU408qU6Q6i/Lw4gcdU0wWoDJtz7bVC92zIkzYZTTduDLDDhFPs1VFXDyxC5n7boFV1cNQz3NiChjdgm+MA9rfcWldNMpVUV2bKE3TO+Aqr3h6iyqqlX1fAZ2lGFCG2NLcE6qQPhNe+hojIPnFGNjmcaVIgQ4QKzVVRla+wdELKVKjae4YUcIelIdeYqBLFzR9U0otpDbMSGulOA0EGxtqzeVRlGEaOqIUeKcERnntHuKmyH741HRYdV8wYMYO4GEPqLB75Hvo8iVOKIbPvBlhRhsHiIIuoPd9KTUuFL8bK+w1KEl52ZWFus3wufwrXFq2ooSxnGEd+HRSAxxPB1uTK0YMQ7KkIlhhiOYZLtcHVdxav3ChhBvA7Skn2pw2yRqvcKGF/j+yI5Hu415joqB3g3+zQ6Byg7pyHzUuZLagzQatwXIgsoOy/1lodXUSOA9Zen90Vkm4seAay3f7AlCbvNDvtkdPaidfUlbjl4U6mrZ+avyAa4rv8EwMBr/J/VflN8i9Y7lmI9wahQV3+WJaxVRwlb914pvpvtqf/UFN0bTx8hEz1A+Fx97hkJCO+HmAyITdAfFbIBP1cqB85sGLnR+7TFREAFHWAvBMCO7xmpxqmI72DHTwIMTGw8Ypzw+WJmPN0bYkoJni4FFEeMET5f7aij+6qoKYCheY1DjPtEMXbUVTIiZ1G/qcgC8ogxv7aIoXimia6ovHVFTWmDsyhFBJElfI6b+pcocdB4u6E/eZjQ4o5D1SpMCPgyTFLHxZsA8XdKAjQ4s1qkFFkfYcCXAfCnYW/8NhU1EZDxp2FL8YrI+HlfAKP+qbxPFHvrt0BMAoz6RF11Z0rxQsi0wZgxdXMUt8a3QEwCRMeoX9tauxbYBTGMt7hWUS1uh9vFfRPZ29+6LSYAYryLKmqjkPCKeImZYdqghlGsczJXwqp661IUA2JtFNuzIF3/lTBE9AijwwQZBbX4ntVwIaqqt0UUAmK0iIfRrKjizN8BohIvQY+QVPB4DzURMd6yoooAAV/2wZE2JZYwQFT4YcKbyWDlELtEZb2A6+rtJnACQKwtuHiEg78HGCH0ERV+HNSCx8S7ww23GlSQt6qoICBG2pbzYe+eAr2ihB6iwg/0l9koMvjIDdNVAMbbTOAgQNKru/wIvzYunb0Wf6v6qPAzmXC+jbWTGX+z0rWniIO8RVvkATHCU5t3tzBP19bDEdaqCj9VY1YUyAC2ySuDpRWvreVX1DggqZ3WEpqgOQYzWnOElRqwE8WumTCywMCNoWtES7JsxCggRkgQZDm3ImrwhNBeW3RViLUpHL85HNMwPXxVqUxEBhCTuxwFMaTDaax7z0NIH+BKENk4cGgMN2YQywak0c4jRxCPt4mH8uQl9AJwRHG43eFuijSvLMsrRR+Q0KHjUhgbOxwBAeR5Cb1AqoSgv6GzPZOmUtagQa7TtvB568CxW54Iph/5CSmj5SSFxg/W49Evqt5oFgrNp7kGOuqvv31ZJ4X89pymYClQhJDWVeOUEjRufvj5y6yJNS1r8gg/L4aGrZXrfPiafJPhzBCuWIsRek/4/IWfBDAS5MhY27tT20B+ZpNLbhNAgvc1ZCxOO2eyrwgjX8Jn6Bz5CUd5hIrXuU3thNoa2QQyN8PJIUhPczyePan7P8jfNEHN2DmshxuT/X4CYM+eghPjUgkppKaMbGFJJgTadon0zB79If62ENA8rJSEPaMyCb2SNKY7QV9QKFOKCHDjTMWN7xaEij+Rmk1ul/7oKt2Ja8mmhimTkEJiMiSP11yFzYRYe358Fje93nq8QClt74aEHiXS8GJ22EQKMwPiI+F7fnys8e90N4fZ1MhAJ0+YZHKCKcnc+LxwD9fBUhaxFsQMPscQhwd3ccY58vrI+SZmveqFkozYxmhn+xPJ5FHtImFQ5IWQFNxu5A2kuaZG2JAiLDC19DhJP0vGuW/fybiQAug1QBrM2fv6dU3GzWl+tuD+DSlCN3M15TgpKJmG/zTdrtylM5nPh5vNYG+a3mDYIz/3g81mOP+2Pjif/vX77z89Waqqd4pkCfMFCmADCA+Zuhqh0JVGE2Fm4sa86c3ZOnqj0dRxXW+0+/1Gv6UXdoCE4tcAwm5JK/XU9WKn//R01Oud1pMv/cIhgBhoF5BP1KxoNQ0kbdXfeXl6avf1lzb5Qf49tVsFCxHNABqIcFMSYVop1nWPi5ZeSyfl+fRSMCQHQRNJ0HMv0Zcmi6Qgdlptj7Cv1z3afjFCOGgdJDQL3YiVlIra0V/6hLJFyPTGk/czv2AFXPDAMaROOd2pkmi2qVPp0OpJyGhxtov1NBq0ey2MdJ6WVU+FFbWu662W3vE71JbeOhatpKKQfAEhDSMtSYBkHfRVvU8aXkPveGNFu+23xgK3gQNIxYSVQZInTTapq3zZ1Gmzo0MFqabty2hYCNAQpXET5lTYlJewk9e8Tlvfsd9XdV1XWwS23XgpBoiFu4/ivBglInJCq2af0L002m2C2aIt8kaASblNNrfLYkLqaJv0NH2verY6RePisJWwf5xAWDGPpfWoMfGG937QABtFp6PoCGdTSCf0HThuIfoxgKPFWJRQS0hOk0pY+VJ6Y6zTIHpvuka7Up38UmwYxBge6GUJqVdbWWye1EnreyF9TOtIFoSkK+0XnKuhY1rWVoAwNrsbZ9vtShZvmKCF1+kQzH6jUWxViFHUNbEC2BugGNLY5GBzTN1Mlxa9Hw7vPmyRgR5r8QLsysWQalZ8jm5b5ZQjzZnnL3bpaPgSzGry8iHDjulpWpI7wtiI1+3u0iihOdI2SBby3qL+iQ70L61W7oEeGcv4RHSjYNk9b4w5p7aeK3YylQbstxu0VnZ8RL1AUh+EXW4xeCD9vvSuPteCKeMYF6urfrvzVrsBYk4+oofLdylej5jBboEW/IK5tzsXYfRXEQ3K5ZdivmECo/OO5zN9l/sslhms2PxblckU5a+sMcRcqwmEpgdgIWgboG9iIiF1ooH2PQZjnGfwIOMfaXYsYg5AcmcXGuB7o0vdymhdw1B4O5HJSsloXKC9KN3U1hnEjICY9HRbOCWbfW07me2HooTLpj3KcqZFMLgTNNVDPFK6LIAEzxD5DsyPrMJZCQUJlz3Iw0nWfHkBpLva6rUUpfGQZpwOAteIwai4byIG3GgDGY6lDOwUsPHiLQfbfkWVHiioFcsaCx3OzFns7vms3EibiVeY5uR0NJIx6XZ2m061+/44r7elOhkKpxxPE7GH0n6mxTv2vHZ8hBLdvfZrd2uJTZvUAEMXEHW67m3T3bVUQO8kna27TjoGYXgCZlkFfBPRNClZP5m5Duzx1NA0wJ+NEnrr+Mu+dsKuDDWuapqyGNuD5BN0yMBcum8imeomurRRMdfObKFgHDGJ1umeb7+Dve2ZdrT8jBDM/46ymDm8+wp3m6XIfaiobyLaHmTOJjKHa8ddTY+WgTQ60OvNdrvRotvbbVqYjOdevfEDNfwr1nG6cp35MJWNSO+wFfvuFfanwaTfXksfaGMOvn/4Zv/1xyf3t8+f/97+cvTK0jAMy7KOi+l2Nfv0h21PqIVf9pLdNRmjEnq1MnwTMaqfUs4IuUjoLXN1Pfnxx64vwd9yTikXWc/qKYNTSb6JWEMJzokMoO8k8/x4QeU8gzJ4T5n2SsL9qzyvL3psz3ieTEmxatSnq1Z7rD4+12qQd5cUojkfL5L8Zm9BqPiTqekS6vj8JCq1R6+eEkBaiI8E7xnwXktFNOfLqSGHVzah4k87sDWzoysaSkNVf/YpvapZE2MkIG5st4kzOUndxHPPi4touF/mgZMXxfP+XQkptpAQQuz2hs6s4bmAZVMmY1bBjJi4OZrt5h//9DCffbrH50t1hWoogGhu5o47amItp+ueFGFuo5o3McGtXz+Pv0y+fTQffdRaWJhieXzuDdaH5YnMEnAR3z3JrIKngru/dLO+0eioauunz78t//rr5/Vw8/GrGZ0N9XqDzXpyoCfNrqaWQY8A1LKdXQoSAh41AKFdcGPUd0J4etHVfptM16hYqkaFlo7he6JqwQvBwaUlhYVBGb0hy0wZW78eoh4YQSUWvOWESyNg7IKsa6PCRgofrUUN2Q1Jt8oyIt8wZCuFCOeFbRRBKQZGNLmN3xIi3xC0bwZaSKeFCzGsqBl2nAq3RbyFYEDCYQmGpryIBR4u6HwpsHIXdvUOSzGTbaIYouCUEoEd/1jcIuohZty6L4KIjzCKgHCf263tSkQQM9sm8rdFbAi2PEW+GPOcswvSI15/T982BL6frxQxFgUNC71NJrlMhUn5RWWvkGfQwEi42Sn2pznkQExOHCd7jewVFSPOLC9BCB2cl6pcccA8FTU8Pi8jYWWTsbspBzA7Iu87Ikt4MY5LK1YOYFZEdEzcpk7xa3PlG2N5gJnaIhYeRyZHyKTvSVWqPMAMpYiUtO3pNMJKdyTlmFAuoCwi1lapNgaAMB63sOaOy4UUKhdQrqLyZ1cDMRfQfml8HdndKSmM5QNKrPoR5jzbRtB+Kb8JpqFF/Jtssqk3AkyrqECaru4C8YQ1MNcXEJ6xX4mdoW4DmDiBQ4CPCA2CgXJ9gfnaAOfEygaym98SUNwWET7xYzx1TeQIa9VHQc49DIVj7gXp6G4FCFdUmpQOWCjNPNWgnHuCvIkKgqI0ug7nCnVLQB4RY2Q5wACxCfp7MG8imPvSe1bc2exU5qeIl8BtAWOIGBkrcBm4BD33wtyXccTQuoaa4OVM++oqcGtApi1SRwnY8jxvhh2EIH9pPAdteHWMBB5fpnP0LM63B7yUItIWjkCXE1OnRDloY3mEmctjNBZMi0x7oXRoUoEbA1JE/elvAV6lOxZ47sXyCEcQozZgZEAt25Mfv7l//6DdMIgvSCk4+/anQIOuE1sYiHNBs4gxK7eg9wq+sbdPTZTZVCtHR65rney90BDedTi/cy3UjcvnzSBydnwMxDawj8Q8uE0EebTlZvMs50037FggxO4SiHPR+M8DefUBTwVyw/gsIj6KDu3PNGlOQU7fjHxefLaHsbvFEDcz0LlG4z+tRC7zLCBUPCd5Nk8bmHasu5nvTtuzoqFcOfeQppy3p+V6AzSKiNK9gyhkQOMfB3C+hdhzz5oNI5+EpWsOJl/Gp4WFGSsvlL0lyLmn0WyCi9P4y2RgitezV7WHM0u40tE4QOiMkoSsgqTp7wYpgIz0NuuD7Sxnq+mxaRkG45RoGFbzOF3Nlo59WG9kHB4DxQc7KyWrYOIZJb7qiXvWpEU2d5tsDndlSfWr/ZSaVTDlnBkPsZE2iHfUX5dzqedeovTm7i9k6E/Z2ED8cUjAeU+dlHmKZ5tAytRJSfVZomzsKenqcPr2lMYfTAbs05DLJCEGc1GvWx85aVG4ZdCNQt+2NMS6yjcfaCeKIqYB+kL9E7fjyV7abTiTdPfr8TYatpK8A0dmsPxVIM89ehlLBtCDpB5t5+3sIOWkLSu9zcTdngHvtqQdOPKeXL42+lGhZVNwWgEd2Yzz1LXTHe3T2Ob2eHRWhE6X5PELKhiF/0GKMFbRY0krEtqo78+FrK27c9b7njgPKyc0Td3c3rlbC2lpnnv1TvhuTDWylGtKEUYdMehxppI+PwwozXpsnBejk7v8Yk/mm81mMNjvadY9KuS3wYC8Np/YX5buabU4G1525YxOiZxqzTw591T+SFp50uu8jPYWBhHFsAz/F9pLMXO6HNfnVcM5cu6FxwqXcuJxOGkr42KQatlz7tXDM50L5oq7gQCq5ci5Vw/Pvi6c0rBsgVSTz7kXnHz4oF8vc2dlqKoAIQLOHRfl3PNaCvmyej15vNMpmOqoTCFqqdeTx+uBajhjzr2HiFBUICvZ+4gKqpYt594Wqcz376yuRgEvqsHepeKce/8On1BH74RdqvrecFSugDTeNlQtY8696ne2IV9b9R00RaYEVVY10ZkRMOHj6+sHBrFzR9VUf3hgEUPCD6KNFVEZvlYZxHstQ4J4Ue3DqyjsSORPUyWleG2Ld9oOQ9X+/eG1mpWQIn7/5yEm719JqXB96T/fX1+Fu39inyiC+Pqf67N6uN/x8D+vrwnbmwleXxTxr2uFv7M5zVX+qtUSQv8S/doIYjWsqfc19b4i/vM9coJzNkKvFF8/3U83ysgF8RNVMXEHPtk3kSJWP/z3fjqZq3iI//1QTQNM8770SrH6v/sD9BD/V00twXT/Uu8ar6+7MnLulSrI+MNXLc1IlOpB6yHWKj03zQPzTQUprlmRKUERIdv7Vl/9CZG5pDn36m/gXpImGKGxGajGAsKwIGEtMgUK/+juLJRitrm91DvI2oGJQwQeGxBhgoV3Mn0TJyGxIPV3YfQIjAgQJpuwB5/6jdulwU4WjOqfPiboBiLyhGk2+lr122/WbT2hBHhoe0jVjUcEbMBpvRP9xGGbNbFgMTqMFHrYcWqqFwARsOOnXCT4jHlYcece3wgPacaK5tyTyWXDfwbwxUiX4FPd4fiYM0OHNB31/RgPe7DyUoiAP408IpHeZGZlSyGTAY4mvwmzi0mf5ZbkTyMLGPukuXan5zIxPaOcNXXXe/aOshmlEnyi5AH5z/YGtjuyCh6bFh5Qt3XtgRm7n/yZikK/tiyA8Ke75tpxF0aQxSQDamBLJWwL11kD3m3ZzsUU+CZmA0z8/GZNCvR49p1g00/LJU/ifBy59gRySuRVltIN8C/NCijxjd5gM6T+B7PVaEvPyz2fLcuiCffoYbmL6Xa0mrk7ez7cpGSBzHGyKeAjnB0w83e63R4Rk/6XwU2jku/oVs7POw9g3m9lv0ues2ljvvp5VX0LxLyH70biLfIrenvE/KcLMzEzRdS8NWKR45PDuKdiSt4Wsdj50EHsWlEVb4lY9ABsL/6wuIK3Qyx+wjeNIS1BvbKPGi/zurXq/wEEAtmsW43uqQAAAABJRU5ErkJggg==;" parent="1" vertex="1">
          <mxGeometry x="592.5" y="275" width="70" height="70" as="geometry" />
        </mxCell>
        <mxCell id="Y-jfnIZlCBl2N6Mui_qn-53" value="" style="edgeStyle=orthogonalEdgeStyle;rounded=0;orthogonalLoop=1;jettySize=auto;html=1;" parent="1" source="Y-jfnIZlCBl2N6Mui_qn-52" target="Y-jfnIZlCBl2N6Mui_qn-44" edge="1">
          <mxGeometry relative="1" as="geometry" />
        </mxCell>
        <mxCell id="Y-jfnIZlCBl2N6Mui_qn-52" value="" style="html=1;shadow=0;dashed=0;align=center;verticalAlign=middle;shape=mxgraph.arrows2.arrow;dy=0.6;dx=40;notch=0;fontColor=light-dark(#000000,#66B2FF);fillColor=light-dark(#FFFFFF,#3399FF);" parent="1" vertex="1">
          <mxGeometry x="90" y="280" width="120" height="40" as="geometry" />
        </mxCell>
        <mxCell id="Y-jfnIZlCBl2N6Mui_qn-55" value="" style="html=1;shadow=0;dashed=0;align=center;verticalAlign=middle;shape=mxgraph.arrows2.arrow;dy=0.6;dx=40;notch=0;fontColor=light-dark(#000000,#66B2FF);fillColor=light-dark(#FFFFFF,#3399FF);" parent="1" vertex="1">
          <mxGeometry x="325" y="280" width="95" height="40" as="geometry" />
        </mxCell>
        <mxCell id="Y-jfnIZlCBl2N6Mui_qn-56" value="" style="html=1;shadow=0;dashed=0;align=center;verticalAlign=middle;shape=mxgraph.arrows2.arrow;dy=0.6;dx=40;notch=0;fontColor=light-dark(#000000,#66B2FF);fillColor=light-dark(#FFFFFF,#3399FF);" parent="1" vertex="1">
          <mxGeometry x="-190" y="-33" width="120" height="40" as="geometry" />
        </mxCell>
        <mxCell id="Y-jfnIZlCBl2N6Mui_qn-57" value="" style="shape=flexArrow;endArrow=classic;html=1;rounded=0;" parent="1" target="Y-jfnIZlCBl2N6Mui_qn-54" edge="1">
          <mxGeometry width="50" height="50" relative="1" as="geometry">
            <mxPoint x="500" y="350" as="sourcePoint" />
            <mxPoint x="550" y="300" as="targetPoint" />
            <Array as="points" />
          </mxGeometry>
        </mxCell>
        <mxCell id="Y-jfnIZlCBl2N6Mui_qn-54" value="" style="html=1;shadow=0;dashed=0;align=center;verticalAlign=middle;shape=mxgraph.arrows2.arrow;dy=0.6;dx=40;notch=0;fontColor=light-dark(#000000,#66B2FF);fillColor=light-dark(#FFFFFF,#3399FF);" parent="1" vertex="1">
          <mxGeometry x="510" y="280" width="90" height="40" as="geometry" />
        </mxCell>
        <mxCell id="Y-jfnIZlCBl2N6Mui_qn-58" value="" style="endArrow=none;html=1;rounded=0;" parent="1" edge="1">
          <mxGeometry width="50" height="50" relative="1" as="geometry">
            <mxPoint x="375" y="670" as="sourcePoint" />
            <mxPoint x="440" y="670" as="targetPoint" />
            <Array as="points" />
          </mxGeometry>
        </mxCell>
        <mxCell id="Y-jfnIZlCBl2N6Mui_qn-61" value="" style="endArrow=none;html=1;rounded=0;" parent="1" edge="1">
          <mxGeometry width="50" height="50" relative="1" as="geometry">
            <mxPoint x="500" y="390" as="sourcePoint" />
            <mxPoint x="550" y="340" as="targetPoint" />
          </mxGeometry>
        </mxCell>
        <mxCell id="Y-jfnIZlCBl2N6Mui_qn-62" value="" style="endArrow=none;html=1;rounded=0;" parent="1" edge="1">
          <mxGeometry width="50" height="50" relative="1" as="geometry">
            <mxPoint x="425" y="700" as="sourcePoint" />
            <mxPoint x="530" y="700" as="targetPoint" />
          </mxGeometry>
        </mxCell>
        <mxCell id="Y-jfnIZlCBl2N6Mui_qn-64" value="" style="endArrow=none;html=1;rounded=0;strokeColor=#d79b00;fillColor=#ffcd28;gradientColor=#ffa500;" parent="1" edge="1">
          <mxGeometry width="50" height="50" relative="1" as="geometry">
            <mxPoint x="268" y="400" as="sourcePoint" />
            <mxPoint x="268" y="400" as="targetPoint" />
            <Array as="points">
              <mxPoint x="210" y="400" />
              <mxPoint x="320" y="400" />
            </Array>
          </mxGeometry>
        </mxCell>
        <mxCell id="Y-jfnIZlCBl2N6Mui_qn-65" value="" style="endArrow=none;html=1;rounded=0;strokeColor=#666666;fillColor=#f5f5f5;gradientColor=#b3b3b3;" parent="1" edge="1">
          <mxGeometry width="50" height="50" relative="1" as="geometry">
            <mxPoint x="448" y="400" as="sourcePoint" />
            <mxPoint x="448" y="400" as="targetPoint" />
            <Array as="points">
              <mxPoint x="390" y="400" />
              <mxPoint x="500" y="400" />
            </Array>
          </mxGeometry>
        </mxCell>
        <mxCell id="Y-jfnIZlCBl2N6Mui_qn-66" value="" style="endArrow=none;html=1;rounded=0;strokeColor=#d79b00;fillColor=#ffcd28;gradientColor=#ffa500;" parent="1" edge="1">
          <mxGeometry width="50" height="50" relative="1" as="geometry">
            <mxPoint x="630.5" y="400" as="sourcePoint" />
            <mxPoint x="630.5" y="400" as="targetPoint" />
            <Array as="points">
              <mxPoint x="572.5" y="400" />
              <mxPoint x="682.5" y="400" />
            </Array>
          </mxGeometry>
        </mxCell>
        <mxCell id="Y-jfnIZlCBl2N6Mui_qn-69" style="edgeStyle=orthogonalEdgeStyle;rounded=0;orthogonalLoop=1;jettySize=auto;html=1;exitX=0.5;exitY=1;exitDx=0;exitDy=0;" parent="1" edge="1">
          <mxGeometry relative="1" as="geometry">
            <mxPoint x="227.5" y="470" as="sourcePoint" />
            <mxPoint x="267.5" y="490" as="targetPoint" />
          </mxGeometry>
        </mxCell>
        <mxCell id="Y-jfnIZlCBl2N6Mui_qn-70" style="edgeStyle=orthogonalEdgeStyle;rounded=0;orthogonalLoop=1;jettySize=auto;html=1;exitX=1;exitY=0.5;exitDx=0;exitDy=0;" parent="1" edge="1">
          <mxGeometry relative="1" as="geometry">
            <mxPoint x="240" y="450" as="targetPoint" />
            <mxPoint x="232.5" y="465" as="sourcePoint" />
          </mxGeometry>
        </mxCell>
        <mxCell id="Y-jfnIZlCBl2N6Mui_qn-71" style="edgeStyle=orthogonalEdgeStyle;rounded=0;orthogonalLoop=1;jettySize=auto;html=1;exitX=0.5;exitY=0;exitDx=0;exitDy=0;entryX=-0.006;entryY=0.782;entryDx=0;entryDy=0;entryPerimeter=0;" parent="1" target="Y-jfnIZlCBl2N6Mui_qn-4" edge="1">
          <mxGeometry relative="1" as="geometry">
            <mxPoint x="227.5" y="460" as="sourcePoint" />
          </mxGeometry>
        </mxCell>
        <mxCell id="Y-jfnIZlCBl2N6Mui_qn-72" style="edgeStyle=orthogonalEdgeStyle;rounded=0;orthogonalLoop=1;jettySize=auto;html=1;exitX=0.5;exitY=1;exitDx=0;exitDy=0;" parent="1" edge="1">
          <mxGeometry relative="1" as="geometry">
            <mxPoint x="227.5" y="470" as="sourcePoint" />
            <mxPoint x="267.5" y="490" as="targetPoint" />
          </mxGeometry>
        </mxCell>
        <mxCell id="Y-jfnIZlCBl2N6Mui_qn-73" style="edgeStyle=orthogonalEdgeStyle;rounded=0;orthogonalLoop=1;jettySize=auto;html=1;exitX=0.5;exitY=0;exitDx=0;exitDy=0;" parent="1" edge="1">
          <mxGeometry relative="1" as="geometry">
            <mxPoint x="228" y="480" as="targetPoint" />
            <mxPoint x="227.5" y="460" as="sourcePoint" />
          </mxGeometry>
        </mxCell>
        <mxCell id="Y-jfnIZlCBl2N6Mui_qn-74" style="edgeStyle=orthogonalEdgeStyle;rounded=0;orthogonalLoop=1;jettySize=auto;html=1;exitX=1;exitY=1;exitDx=0;exitDy=0;" parent="1" edge="1">
          <mxGeometry relative="1" as="geometry">
            <mxPoint x="231" y="480" as="targetPoint" />
            <mxPoint x="231.03553390593288" y="468.5355339059329" as="sourcePoint" />
          </mxGeometry>
        </mxCell>
        <mxCell id="Y-jfnIZlCBl2N6Mui_qn-75" style="edgeStyle=orthogonalEdgeStyle;rounded=0;orthogonalLoop=1;jettySize=auto;html=1;exitX=0.5;exitY=1;exitDx=0;exitDy=0;entryX=0.028;entryY=0.892;entryDx=0;entryDy=0;entryPerimeter=0;" parent="1" target="Y-jfnIZlCBl2N6Mui_qn-7" edge="1">
          <mxGeometry relative="1" as="geometry">
            <mxPoint x="227.5" y="470" as="sourcePoint" />
          </mxGeometry>
        </mxCell>
        <mxCell id="Y-jfnIZlCBl2N6Mui_qn-78" value="&lt;div style=&quot;text-align: left;&quot;&gt;&lt;b style=&quot;background-color: transparent;&quot;&gt;Object Type - &lt;/b&gt;&lt;span style=&quot;background-color: transparent;&quot;&gt;Table&lt;/span&gt;&lt;/div&gt;&lt;div&gt;&lt;br&gt;&lt;div style=&quot;text-align: left;&quot;&gt;&lt;b&gt;Load -&amp;nbsp;&lt;/b&gt;&lt;/div&gt;&lt;div&gt;● Batch Processing&lt;/div&gt;&lt;div style=&quot;text-align: left;&quot;&gt;&lt;span style=&quot;background-color: transparent;&quot;&gt;&amp;nbsp;● Full Load&lt;/span&gt;&lt;/div&gt;&lt;div style=&quot;text-align: left;&quot;&gt;● Trunc &amp;amp; Insert&lt;/div&gt;&lt;div style=&quot;text-align: left;&quot;&gt;&lt;br&gt;&lt;/div&gt;&lt;div style=&quot;text-align: left;&quot;&gt;No Transformation&lt;/div&gt;&lt;div style=&quot;text-align: left;&quot;&gt;&lt;br&gt;&lt;/div&gt;&lt;div style=&quot;text-align: left;&quot;&gt;&lt;b&gt;Data Model&lt;/b&gt; - None(as-is)&lt;/div&gt;&lt;div style=&quot;text-align: left;&quot;&gt;&lt;br&gt;&lt;/div&gt;&lt;div&gt;&lt;b&gt;&lt;br&gt;&lt;/b&gt;&lt;/div&gt;&lt;/div&gt;" style="rounded=0;whiteSpace=wrap;html=1;fillColor=none;fontColor=light-dark(#000000,#000000);" parent="1" vertex="1">
          <mxGeometry x="200" y="470" width="150" height="60" as="geometry" />
        </mxCell>
        <mxCell id="Y-jfnIZlCBl2N6Mui_qn-79" value="&lt;div style=&quot;text-align: left;&quot;&gt;&lt;b style=&quot;background-color: transparent;&quot;&gt;Object Type - &lt;/b&gt;&lt;span style=&quot;background-color: transparent;&quot;&gt;Table&lt;/span&gt;&lt;/div&gt;&lt;div&gt;&lt;br&gt;&lt;div style=&quot;text-align: left;&quot;&gt;&lt;b&gt;Load -&amp;nbsp;&lt;/b&gt;&lt;/div&gt;&lt;div&gt;● Batch Processing&lt;/div&gt;&lt;div style=&quot;text-align: left;&quot;&gt;&lt;span style=&quot;background-color: transparent;&quot;&gt;&amp;nbsp;● Full Load&lt;/span&gt;&lt;/div&gt;&lt;div style=&quot;text-align: left;&quot;&gt;● Trunc &amp;amp; Insert&lt;/div&gt;&lt;div style=&quot;text-align: left;&quot;&gt;&lt;br&gt;&lt;/div&gt;&lt;div style=&quot;text-align: left;&quot;&gt;&lt;b&gt;Transformation &lt;/b&gt;-&amp;nbsp;&lt;/div&gt;&lt;div style=&quot;text-align: left;&quot;&gt;&lt;br&gt;&lt;/div&gt;&lt;div style=&quot;text-align: left;&quot;&gt;&amp;nbsp;● Data cleaning&lt;/div&gt;&lt;div style=&quot;text-align: left;&quot;&gt;&amp;nbsp;● Data Standrization&lt;/div&gt;&lt;div style=&quot;text-align: left;&quot;&gt;&amp;nbsp;● Data Normalization&lt;/div&gt;&lt;div style=&quot;text-align: left;&quot;&gt;&amp;nbsp;● Derived Columns&lt;/div&gt;&lt;div style=&quot;text-align: left;&quot;&gt;&amp;nbsp;● Data Enrichment&lt;/div&gt;&lt;div style=&quot;text-align: left;&quot;&gt;&lt;br&gt;&lt;/div&gt;&lt;div style=&quot;text-align: left;&quot;&gt;&lt;b&gt;Data Model &lt;/b&gt;- None(as-is)&lt;/div&gt;&lt;div style=&quot;text-align: left;&quot;&gt;&lt;br&gt;&lt;/div&gt;&lt;div&gt;&lt;b&gt;&lt;br&gt;&lt;/b&gt;&lt;/div&gt;&lt;/div&gt;" style="rounded=0;whiteSpace=wrap;html=1;fillColor=none;fontColor=light-dark(#000000,#000000);" parent="1" vertex="1">
          <mxGeometry x="380" y="510" width="150" height="60" as="geometry" />
        </mxCell>
        <mxCell id="Y-jfnIZlCBl2N6Mui_qn-80" value="&lt;div style=&quot;text-align: left;&quot;&gt;&lt;b style=&quot;background-color: transparent;&quot;&gt;Object Type - &lt;/b&gt;&lt;span style=&quot;background-color: transparent;&quot;&gt;Views&lt;/span&gt;&lt;/div&gt;&lt;div&gt;&lt;br&gt;&lt;div style=&quot;text-align: left;&quot;&gt;&lt;b&gt;&amp;nbsp;No Load&amp;nbsp;&lt;/b&gt;&lt;/div&gt;&lt;div&gt;&lt;span style=&quot;text-align: left; background-color: transparent;&quot;&gt;&lt;br&gt;&lt;/span&gt;&lt;/div&gt;&lt;div style=&quot;text-align: left;&quot;&gt;&lt;span style=&quot;background-color: transparent;&quot;&gt;&amp;nbsp;Transformation -&amp;nbsp;&lt;/span&gt;&lt;/div&gt;&lt;div style=&quot;text-align: left;&quot;&gt;&lt;span style=&quot;background-color: transparent;&quot;&gt;&lt;br&gt;&lt;/span&gt;&lt;/div&gt;&lt;div style=&quot;&quot;&gt;&lt;div&gt;● Data Intigration&lt;/div&gt;&lt;div&gt;&lt;span style=&quot;background-color: transparent;&quot;&gt;&amp;nbsp;● Agregation&lt;/span&gt;&lt;/div&gt;&lt;div&gt;● Business Logics&lt;/div&gt;&lt;div&gt;&lt;br&gt;&lt;/div&gt;&lt;/div&gt;&lt;div style=&quot;&quot;&gt;&lt;br&gt;&lt;/div&gt;&lt;div style=&quot;text-align: left;&quot;&gt;Data Model -&amp;nbsp;&lt;/div&gt;&lt;div style=&quot;text-align: left;&quot;&gt;&lt;br&gt;&lt;/div&gt;&lt;div style=&quot;text-align: left;&quot;&gt;&amp;nbsp;● Star Schema&lt;/div&gt;&lt;div style=&quot;text-align: left;&quot;&gt;&amp;nbsp;● Flat Table&lt;/div&gt;&lt;div style=&quot;text-align: left;&quot;&gt;&amp;nbsp;● Aggregated Table&lt;/div&gt;&lt;div style=&quot;text-align: left;&quot;&gt;&lt;br&gt;&lt;/div&gt;&lt;div&gt;&lt;b&gt;&lt;br&gt;&lt;/b&gt;&lt;/div&gt;&lt;/div&gt;" style="rounded=0;whiteSpace=wrap;html=1;fillColor=none;fontColor=light-dark(#000000,#000000);" parent="1" vertex="1">
          <mxGeometry x="567.5" y="510" width="120" height="60" as="geometry" />
        </mxCell>
        <mxCell id="Y-jfnIZlCBl2N6Mui_qn-81" value="" style="rounded=0;whiteSpace=wrap;html=1;fillColor=none;strokeColor=light-dark(#000000,#141313);dashed=1;" parent="1" vertex="1">
          <mxGeometry x="810" y="140" width="120" height="420" as="geometry" />
        </mxCell>
        <mxCell id="Y-jfnIZlCBl2N6Mui_qn-82" value="&lt;font style=&quot;font-size: 24px;&quot;&gt;Consume&lt;/font&gt;" style="rounded=0;whiteSpace=wrap;html=1;fillColor=light-dark(#FFFFFF,#FFFFFF);fontColor=light-dark(#000000,#000000);" parent="1" vertex="1">
          <mxGeometry x="825" y="110" width="90" height="50" as="geometry" />
        </mxCell>
        <mxCell id="Y-jfnIZlCBl2N6Mui_qn-83" value="Raw Data" style="rounded=0;whiteSpace=wrap;html=1;fontColor=light-dark(#000000,#000000);fillColor=none;" parent="1" vertex="1">
          <mxGeometry x="210" y="345" width="120" height="15" as="geometry" />
        </mxCell>
        <mxCell id="Y-jfnIZlCBl2N6Mui_qn-84" value="Cleaned,Standardized Data" style="rounded=0;whiteSpace=wrap;html=1;fontColor=light-dark(#000000,#000000);fillColor=none;" parent="1" vertex="1">
          <mxGeometry x="395" y="347.5" width="120" height="15" as="geometry" />
        </mxCell>
        <mxCell id="Y-jfnIZlCBl2N6Mui_qn-85" value="Business - Ready Data" style="rounded=0;whiteSpace=wrap;html=1;fontColor=light-dark(#000000,#000000);fillColor=none;" parent="1" vertex="1">
          <mxGeometry x="567.5" y="345" width="120" height="20" as="geometry" />
        </mxCell>
        <mxCell id="Y-jfnIZlCBl2N6Mui_qn-87" style="edgeStyle=orthogonalEdgeStyle;rounded=0;orthogonalLoop=1;jettySize=auto;html=1;exitX=0.5;exitY=0;exitDx=0;exitDy=0;entryX=0.5;entryY=1;entryDx=0;entryDy=0;" parent="1" source="Y-jfnIZlCBl2N6Mui_qn-84" target="Y-jfnIZlCBl2N6Mui_qn-84" edge="1">
          <mxGeometry relative="1" as="geometry" />
        </mxCell>
        <mxCell id="Y-jfnIZlCBl2N6Mui_qn-88" value="" style="shape=image;verticalLabelPosition=bottom;labelBackgroundColor=default;verticalAlign=top;aspect=fixed;imageAspect=0;image=data:image/png,iVBORw0KGgoAAAANSUhEUgAAAlgAAAJYCAMAAACJuGjuAAAC91BMVEX////9+vXy3sHvz3zqvErpti/lryLuy3H14Kz79u3+/Pj77rXrwlnkqRDjqBDkqBDiqBDnrxr68+fjqhb889T58OLrwVX15tD9+Ofruzj+/fv//v7778DjpxDipxD26dbiqyDipg/jphDgpRDhpRDhphHhpBHgpBHfpBHfoxH++uz9+OP55In33nP23Wn322X22WT00UfxzD7wyz7xyjvuwTTpuyv555n32l7100r000r10kj00Ubz0EXyzkHyzUHrwC3fohH666b01Vfzz0P67Kz42V3otyb44n/eoRDwyDjdoBDyzUDdnxDepR7cng/xyzzbnRDwyjnanA/amw7ZmQ/Zmg7vyTj048vesGraplfdrmXiuHnpyZjy4cbrz6Xju37vyDfXnkjSkjDTlDTVm0Lt06z37dzJfgzKfw3NhRnmwozPiiPuyDfboRfZo1HLgRLRkCzw3LzQjSjnxZHt1bDvxzbYmA/PjCbcq1/MgxXNiB3OiR/89/Hw2rnKgA/UmDz69OrTlTjXlw7Xmh758ebuxzTkvYLgs2/ntCDWlg3kv4btxjTqzJ7uxTPWlQ7VlA7uxTLuxDHUkw3txDHUkgzu17PhtnbtwzDUkw7TkA3v2bftwi/twy/swS7RjgzSjgzswS344oL34Hb34Hn33m/44n734Xz34Xv333PQjQv34HXswCvQjAz333HRjgvPiwvrvin23GX23WvuxDnOigr43m3rvSj23mzMiQrQkRvrvCfMiAr23WjquybLhwnquiT23GTKhQn23GPpuSPJgwnIgQnouCL23GLpuCLptyH222D23GHHgAjptiD322D322HFfwjJhgjptR/IhQj321/Jixj3217pshzptB732lzHhAj3213DfQfHgwfGhAjGgwjBfQb321zFggfpsx3YnBPAegb42l3EgQb42lzDgAf42VvDgQfCgAa+dwXCfwbBfwX42Vr52Vr52VvBgAXAfwW7dgS6dQTJjiT62Fn52mXaoynEhiLTm/a9AAAmM0lEQVR4AezVxYHEMBAEQC2DrZGXGfJP8pj+1u+qMhjs1BMAAAAAAAAAAAAAAAAAAAAAAAAAAAAAAAAAAAAAAAAAAAAAAAAAAAAAAAAAAAAAAAAAAAAAAAAAAAAAAAAAAAAAAAAAAAAAAAAAAAAAAAAAAAAAAAAAAAAAAAAAAAAAAAAAAADAYDgaT6Z9TMaz+SLBH8umneYouY/o8mo8HyT4tp6tchWxabcJPu32uZ7xIb2D4z5yNSVO7z8LzqNcTSkloh0kuFynNbfqdus28wTLWVTaqhK3273ruhgvtJXHJPf3uVW3961685xrK/NqEfgmPtxn2sooKkTg11Z9uY8T/925jVf27ALpbSAGoHB5oMwYMATa+x+wgReOumu5Q/+8d4ZvJNk7WhUr8NTzR5ZOWKzAM1XUvHgUZMJKqSJgmbDGnevjYZmw3u5ZvUHVnSYBLBNWYljRZJOwLIaVVSUsGwQLVdNIFazaVlhWDevtpkpVk+lUWCSs2hVYVLVhJSwSVv2jTXFYTYUVJ6zkCqRGWP9MWBlVTiwSVu6wglW7ZTUl6oRFwir/sYpUwcqJFSes/LnuxLICrLcMq5Qqmj+6yIT1H1Q1TQMsE1b9UyCsYlXAMmHVPwXWqOp7YJmwOKxyqghVTCwTVuUKbGFVUAUsE9aIfwt0rgpYJqwNmPGqzlj1vbDsx6uyqrZ8WO2CWNcJy368Kj8FToao2rQAlgkrreqG1WITsExYIw4rOqgClgkroSpYgSQsEtawRxtUXa9A6v0qvEpY41TBSlgkrFpVhRWIquVSWCSsjKrmvqqlE4uEVf0ftI9Vwap3FZKwppNNyT9WdK5KWCSs3L+FQJWwSFhNm1JFp8NKWHY1sQYeVvEKpE5Y9uPV+MOKaLVaCet+wqpUdWdYrVbr9VpYJKyx5zqqdqw6VyEJK1YVr8BIVecqvEpYSGpSh9V6x2q1yVV4lrAOkipUxcNq129hHRJW+SmwvALJiUXCAlKfUsUKJGGRsBZ3VMGKalWRsEhYJVXxHytWoLBuElb5KbBwWAkrylWY/WNFwgoSVuKPFayEFeUq3NVdxApMqFr5CP1wsTz+U923Lx/vtNjo6Aec606sv+zawVITQRDGcb1wgCOchKMWFUEhyWaVxM26Eo2T2XGJWXn/R3F60xN7M5PJWNy6+l9ScOD4q28akH+nN2e3Hz7eed0faDjqGtOySX5ibaUeVjT4pgE7WNLlzafPD8GmtBk0nA0h+Ir2BSrmk5O31+ljRVTZBBa33pzdPxxoip/RFGKimpCUq/x6vpWFYlJVVVUlsJh1+u3R0nEfPiwwBaQ8VYX9gAraYmJloZjrBFXAqrINmMGSLr+jp9A76FQFpiqEqmtiDy3gArISVAEr+MQMlnTx48AjSFDNKKoigqprab2AGcCV8AQCK3awpNc/g1v14FD1VRVBVYt+4/PB7oFLUwUpVrCkq8BD6K6q/ak6qgqazxe5Q2PZxA8rGidY0uXt/gs427Hqv39OFXI6pApavVNbNIHJoocVjddPhdL7O/L8OVTeVHm/VoioKsv56EQ5LYPoWBFWitVTKF089lUFjyosBVU5h5bKgRmkqAJWSnOCJV3B6zclqHxViVNV2txk5UpVEFmsuCpIYDGDRaeKloKKqMLNquuyLnNVYYMjh1WlXEZg8YIVmKotJ6cqHVVZ238QXayYKmQli8US1t5SdWf6MPEHwLKnqsYorPhYkfSvVxIjWFPv/RumX1UOFVTvGllYto7OIHZYkbQ2AosXLIIqrCp9qgBVV+60aBXZqoqoahqBxRMW+c8K6Q8gLlVf1XjcwdI2YyysyGGFqoCVLBZDWEWR+FsFKDZVoGoMi6VtjbGpo08gqAJcAosZrPBULUKqSoiiclFUUN5JAS/quCrTfW/TMIMli5U0VdCRqRphT0+j3DRGQ0ZFVOlOle5UNeu1wOIFK01V2lSBKii3Xgisyuarck+gAVVrgcUM1vD/fwPqCqPKsqwPK6TK7KmyygQWS1gJt3rtP4BBVf3Fipzr+ASCKoHFEFZkqugDGFblo9rCcoVU0cPKsZKnkCGsCCoojoqqwi9+Z8sG96jRQVW2nipoI7B4wXrZVeWhgsbLHRhdKcyd674qaLMRWGxhvXyqsGy5Bi+Qjh9WjpUsFjtYBVFFUAX/WBNDlTlUW1jYxhBV9LCiqmSx2MLy/gKY+AMgVUVbblxGWU7Bw4qqglqBxQuWN1X1kamCwlPlw2obTVQ1VBWGqtr2j8DiBetFUxVAtVqtEFbbPj+vtSGq1kTVv7Fq4RufZbH+smsfzan0WAPHhRdUwdJVFFXdC96v8IT1OznnYIzJGR3gDsE4NWDS4BzwTY43fNQ5EtcINWonpt0L5n8DzvFXR0L0XGleU5pOHkz3arbC+qV6V/W98qxKqPoRU6NaxX7DVbH+9ugSyFnNP7F0j09u2ePVycIUWgubikRjcY9uDTERTi7bCmuOO4B4YiWjQlVYavU3XBUj87enqWK388FaSmfksrlwMl/QyELkSdPZoJgrFXQriWUKJXthWV5XJaGSRtUPf18VpMSowlKpN2/epH4z1sImlnkJRFAqVcHgyr/IPFUomKO0Wluru8gCVFgHdbWGhyjbqAKNaLYuhS/bVf0oUAlVDFVqc5PBGrf1D8WwklVh7A235pxY26CMFnfi2oLAMqQQDgDQajhgBQvshWWtSqASquTEAshHVYqrwn4TXFnZQisIy6QKM6vC2NtuzQerCVDNZKertar8R1sutRcCVi1fn2p3oxHJdCgA7cadgfXsY3XrUcVVcVhMCqOFsNRLoKxqBSGuzA2r5u+Jlpd9/sQa/9FWI75FgNXvETnN18gCAO37HYJlsauSVa0KVGJUCVUCFT7FYfEG//yLUPU3oUosgRjur7Ctf88LKyP8iB9tBrCwbwFhYXoggn5oeugArJ88Y1Sp9+rc0gQV7zeDcQjLfGKFif26UIXZAIv9aHeqALDjWURYWDtZBYCk5gCsB0fV3/mowtSjSqEK22OwtjCkFbRQhQlVrIEtsLD2vgHQ2dcWExZpHwBAOe4ALLOqBx+sEahSFqh4h+hqgB0dBcXGalZVcKIKIdoFi3iPqwDN3QWFRXw5CvRAcwaW+lhdoJJVpSbHCuMEKt7JyZ57rOpogLCEqiD/b8xqZXpY8fEWtAsWaUco0IpnQWGRvAFQCziwFIqHldUP1jxnVJ2gKszNVTFcQVQ1ey/QrIrf2gaLBDIARn5RYXnSAJ3T14f16KgSxwqISqlqT1J1drbn5qyOsCDXZKlKsLJhjyVqANCwa0FhkRJbC/XXhvVHtPTgqBJnVdhjo+oMVWFuXAR551v/lFVtCVViWGEo0UZYhQxA2b+osOoG0HT79WFxVdaonjWqeGd7h0fjRqMtWVVQrQqzdWLpBxQ6iUWFVdgGyA5fHdY9qtW//7g696hitxcXF+7RfVvmc1ChinWviv1vIyyS6ACNLiqsYQagVnhtWD+oL1ZQn1WpVZ3Jqt6+ncB6h7DEgzbyxkpWZe9SSEJNoGEvecX+B0u+WAGzfATw8VHFVL2dnljvBlbDaoAJVSw7YflqYpthytsLxOv1pZDPpRN1uusFJHWvV/3ioZ99unhgaPn52v6hLl0b6nLp88AKbCteaT+sVfPjynOMKkSFvb9wv3v3jrF69wFhPbYE8s5H53bC6vUBuoqTLFeosdMvFw2j2Kylox+HusrCRiUSIM9MU72T7lk6DmdbRQM/XzlbSdaVV3gOw63JBQl6r15aC6crx745YH00gO54HYAlLYDPHlWyqvc89zuuCjt6SNVgomp0fm4rrGFWBWt4WmmBiBr9pF+bnXZZoBH1+PHVra7QDKzTmevoerF0EUSUGrnYsno/eKBznf5kF1FQ/HugvRiWfkkBYsQhWM/ZVWEWo4p1dXWFsDir0ejDQLGxGghVrBFjZTMs/MHTtMu04iS6HTC3HZ2hEijLWxRRqGtk6kRZDIBWpE/o3chVKZjqpOszMhv0237Ql9yeINx5CSxx1rIecACWfKzw+KgSxwpqVZgbVV2PRvj/mJNSlRhWGN7aCSteNP9u9MCOQQGAgrHeTadzmWaHAiub95oApgGqH1XL3cGYgCJvmAJNStPxsvjt07Vq2X52vTlWRrdPNTUsvZ4bv3251u9X4i9eCvVjcOSxwh9S/7VRhY2fQFhMFXZz9DRVmE2wxABJynugLP89F9OlpUKv3fb4QonIOrCXFZOmNTMpIREN+8BmgXolBCjWiahQAVarUrr1+4a9YSGUj3a57OaproClaYlt9tEjsXrAt9xz6S+GFcdXbYeIA7CkC4sVqDCLUXXBk1Hx3GNVNx9uRihKsLJShV3bCcu7Q6Gan35BrEUBaDOy1NYFtsBxBrBORD5NvDUAVHcpdw32xgmLczPo9qZ+8WnKptNlaGp11Hv5dIe9tD4La8ebaOJr9gPavMcNwwqFzrHuBCzFxQrKUSVQYepRxbu7Y7BQFf5DWIo7gZhJ1bW9EyuwLm+TtEaRb3B2XebLAg+KgO0M5d27+gGhJJ95a5pikYxQ6UC2F6YAnUrc/Ka9ffbp0r1ZWLfbQHNxfe5zrOUdAFrpEQdgiQVQQvX4sYKwJFChqrtPnxAWDive6MElUKiyFZa+T6U73HqiCADG5bJituVrjEvEIzMRlweIPDlgZRWftVADMHbFB9jvoKs11adrGPiamBkWbGcozQXmPyAthB275v3HN48+AnimGlUCFTaNCm+v3Df3jeRhZakKt2T2wfKz3/MGmbS0TgGKDZcSYbxLAarHGhGdKgdTvAmAQA3Fvj5fBegKR/UWAKx5lIv0JQDkemZYlEItTuaFpbH9P60tEUdgWaqSUT1tVOENaxrWA0vg9T2rD5h9sFymC/2GaeYqphF1oT4FaN5OwywD9JcVV6MUL4tAo+q7i5f6ZLRVKND00IJEX9gUsJB2TJ8Tlit02aJA+3XiGKynjKq3mPWuClV9u/2MTWB9+TIaSKpkVlOq8I3tgqWx5ab4cWphAoBO0kusqm+DDKGdRkNLZq4VgL6/DzTnUd1dNITMhAHQqhOLSiCulhKwaNpDngkrs+QXhW4b4TLzGQ4Qp2BJrE4w9bH6IwugUHX3DdbXL1++fB0NnqYK/7MJlp5ospVMOAoxN2EPsUxvVAGgRERsj1aafQQO18cDmZy4G9kfTlhW5IMkxcfpesywqgnyXFidZkvUNIACvuygRxyCtbo36YR1xhu7sj6rUqPiqlj/h6qwm69fR+qN1fX49v5UwsalUEuUUUW3IK1TsB4i/yHuvJ7axvY4jv1m542Jhx3pzjivW8gt21629yeecYWxDT6yudcmIXewwbQZ3zDj7QWnO9lO2lKWS0hvW/6sPV8hx/qhI+nEcvlQXARoZ/XZ7/npd460DlSiTNMyWbpU7mAn9BMNHYzJolU5NU6WbPrnNG3evmDyFZg2P3RQLHjZkXs3RPy+joml+J55Xpb3X38PvNnixTf59WD//vSLdqIKXHrrrQtHYBXXCmIJrQLEqm4Nhcsn0fA2169DaDyiseMAXNBm6NiGdgVtjeGt7DSdugGBJVI2jTPHddGIw8VJKhYqtI6IhV5dKal0QizVd/j9V19w5dsm332vf4BhfHC+G/7h6Luv//frr79wjirU6lar3kJiNZBY4CuU60Qrq1V40hWx1IDegtRm10yHqcb4T0ISB4IRRmonhb8unjjQUUAHA35Zelz+HFZskq4EbShYJ53zVCxk4VOLVc6smMnM5jSmqzU1U/EuVvDwq9yWF/jHAT4y+BH8pPMzvsD3+GgBz75f/8frn0Ik9wGQSnUJILHA5cvfWKzCoyGTyapOiDU9FDDfvCF7rDaB3jhLn1Vp94mNu+XBsRymZJxWoKKjAF0SVm1q5EK+0XmNDnWiJemrKhVrKvz0YmXCgWUT1aw/UdoPsuJqwKtYz73PjRJLBaHMVun8RI1qcuUKAuzd/0EjKhX66rpUVqvwXefqvliXwTfUKtEQ2DGxiuQ/2cxxvX5li4Uh9UCczCUlbmSmsZN0rVyqQlfRQxe0IpBclknrSTq743SKNzRHJ8gh1tJyR1aQBsO1aU2v4SvexHoGcSW2yhRVhlXAKhWswteV9fX1dz8+JxVVyKqmVDpHdK3AGZfCqoNiiWBaeiZg6WtjkHPhJEPtZF9hDy7BNGMLLb9G6agcZ8QbC5AWuyL/hHjtWSygDpWKyKwZ1YNYqu8dsVWmARAIrTLMglT7Vg0Pc7MQUC5RBamIVRDrsg7X6wxscrUKNDotln6vxFpWtc7i1QfcQMcAvpDK7BM6VrKasQX5RNRFH4IsoIm7SMEmKlQsmNgBsUBlvIwyM+lBLOUQtartqIJU+L7+w+vcH6eoolJRsRBa184Qq4hWlIvexSoeT+PWaysrS0tLExOpQmTGb1n7W0EpPSZ1pEiDyp+DLSTRsFnfQkskX4GYhh2y+pADZ0kjq7NiAR9uOMNivvbFev4Fq1TSVhlSwSeuFbh+ffj6Pz7lFp06Zz0BhFTUKirWLw1u1bVrG2ccCiuiVeOy9+I9GQpVq4PLywFOpRJUxVdVwAhXAktoAtChb6VKevFGHRSYwBY6/5POkkXRWnnOiUX+B7olFgiUGOrKtsVSDxGrQBtRZUhl8MPrb+lmuVVVFrF0qzYglpRVvOPV6E6DlKKGp+ROuYKY30uQYt0s5Oh8q9UUZ1jJQNYUxhRyyN3JVLsnFuYasFSxbbGee9Umqn6Wjqp1s1Xw6vq759664BpVlM3Nq0d0q/DtjJRV4HIvxNIr6+NZibKiRGdxaLcJB7+81irH2DhdUzhGLkN2Bz2zLoql1Bl20a5Yh61VFWgrqiCVztbHsIiU6m85SQW4WNBqA5yBTQ6FlaEVnvRErKF5XshKJJYaYdCFrhV80j/3RVlrb6GM6TwTjVNU/XQWbzqTdmTixEAXxUIdiJxuV6y/0V6VfFQN21gFtn+9+tYl6ahqwsUyuOgQVmarLl/e6IlYskOhEqONLNpWQIcgppja8nOj5mSDFqSoOztYdSSgdlcsTDIVz7Yr1iE6ALZXVRGrINaLXCxnq4hURKydnZ3GN/ZhZVjF0c8heyKWfrYHC2wgXYIZsrwFszotexbHyCg5YxISm8j17WX3s4XuiqXE0C1pXyz5E8DvWlIBsVT/52y/ucmFkowqsLu7a4i1AxpSVl3uWWLhkujimvxZIb2CLN46TrNh0yjZ6nCG0rSGQ1jgD/VHLDIRnm9bLOmokrXqxo0bXKxNLpW0VUZi7TRpyFkFeiKWr0CTiELncHJJoiRXLVUx7CHrFXxReNY8Xpjhseyw32KhaVtrWyyZqsqwykEqAKl0tnWxpKPKeLY5srOzx+HfGrblOrEK3OyBWC4zLPTf+3RowDo7CNbK1JUZ3Iux+UN4Sn8NDdQ+i5X3JJaDVKRWl7RqGxx9kZ/kSUcVnoCRvR2wB7EcC6umVmh79UassUWZH1TrdK6wuZ7hk+ZGVOukq7V/kAZXcNJpCYtUpc9ixdGV8yCWwwB4hVrlHlXg6NHtF3c3XazaJVbd4uhi7YHbDRpWYqug1UaPxArPyqx2wso+WpSgkWDos6xPQJP1DNi5eKkp3sKKrb6KFYzizKNtsdrpgJo5KJUOF2vTfQA0pAL7iQVu3967fdmwCjqRwopYBTZ6IxYKIlRBziCd5pLWo5OpGrODJ+laiOZxG7fc2AUFGZKur2KF0pC7bbE6GlVNXrxFImvTjFkqwyrAEwtW4QtiNa0CNlaBiz0QC3yyKFqCTqkUMBJWrEccszpYz1CmF91AtbqKeUOU8YIeftTXV7Emi+jhehFLvgPqLhW4c+fFu7c2naMKtKTSGbnd5LK1sPpFYBX69D0SK7RC5vqF4IKt4pjofpN5DHx01tkYHDEnnZwTODRWhMn9FMsHt5Gx7YplaSustx1VkApsvXj37qY4qsCBqAJ37941iXXNcQjcaGnVmxoL5LHcYMzxMC1hbm1ZcE09CvqhedNpHp2irmEkFJq8qvRRrIUc1PYgVnu9KmCNKgOItWvXVrBEFawyiXXv3r0NO6tMGF36XokV4vHCMmGHgTDCROrhbBDNz4Sg+kf7qobFNKI6vYabFR3rn1jLBZSVvvbFIlZ5jSqwtbX1DyKWW1QB/gRiwSpDLBmrdno1FBoDHStUbec/8lgYVxJe2cKVUqKYNLTeNY+lfMgy9CisG/nWUL/ECo6jqvQPeBCro1FlALHkogroj/fvjtwD+4kl6FhRrSAV6JlYvgijtyoiKAlciZg2BQ9pOMSzxwVnlUoJ3dMErkYUqYJr0CIVO5GVbohFb2ijxRUvYrnPK8tHFTAS6xZUkooqWMUxxIJZGy5hhawCPauxQCgFs6JZoXX5HEauSZv7t7FUAn1S4blmPgq7bMYirVgPiFeIRerZLooVOJkjedmOWG5SAZeoolY94OhiNTPLLaoAnhhiPXz4cEPOKjztkVhgNAOzJhYU6xGKlFFgzSh2d5ycWxLWUVhIk5kSjYRgNA2zSgKTg2sZxiLBbomlJKO4SCft6VaR7w+TAdBNKvEASK3i33+9/+FdgVVEKmJVayh8CLEa7lbheQ/FAv5p/U6R8bBCo+WTjH5b7hrRg8zdcET2+AoaQDtCxIkpbF0ZOxBaSrg+Ry5H66hYasW/OsVwpuIf8CaW91qdWoUHiGUvFaIKtKTSGYFWOhvCwspq1d5eT8VS/StM40zHn1zIo/rCiYki3szlxV6hhWVrT55h0/yozf7GprC9mEqEfeqT456sH9fAuNIJsaYnF8ysfVJPzWlgIjngWazORZX+CLE+/PCuZFTh0RDrYZOdhusQCKt6m1hgqLCogdzEamLNn1wYGy/MLjJokx4LOq1rIstp6P39HGab1RPT+h9fnE3VE2vJpL913Bdjyx2osaBt2UxRY/oec6vZAa9idTCqwKNHjx48gli2VRW1SiiWpFWexZqnYrkTyM8y47rWYi5XXmT7r8oxXJFvx1qZXPlAuqeWLCOoo4WiaX+5smbscL4W6MxZoQhWLpwN2q0LYrJieZaKWMXBA8RyjyrK45Hfmuy5WAWtOiJWgblPyFGUodUp63E4gT/iOJvL4rZhNpd0MjmxgkikzJf8Sgf6WIEUs6KV05GzFbvEnmWLMwNyYv3g4QSQRpVhVVMs6aiCVOA/Ta9+v00boZbCCnRErHB8PDzwdKjG/6vGkIoVp2NrFRcZI4zchYbeUwvz1g6ooURqHkEF8JhbGk/6RDPGLE5T051kLFpqEeNE6jPHQvZ+KmuxfEBWrE5GVROIJR9VOn9ALFj1RCzDJAervIkFVLWdXxo8lo8UVtLTmVRpfDIbdC/Noks2p4zBWrow6ra7ymhiNcV3l15JleqJ5LIqSp96mt44VAZVMaPqDDiCH5AXS9KqLWGtTqLKePknF+u+lFWPDav++AOJBauMxNoALlbtcSBWP1B9y6HQYEVR5dr2AbsUCFYrkrurhqrLDvsLVqm6/eZ9MlkjdwIIRFLhNbT6E2L9xZ59HTd3xFAAdgvuxenZBakPtuMcOLOeqywx55wqMZbrM15CBgH/EQ84Cqs7ev3mANx79193VZepUN3dPd/dPDxgFPLNqijiqhisiCtYwhtAa1VxVDnUWK3WX7UqDRXl5RmwHgiWMAIZq3Y7YLmF9aNZlV5VlHxmWNRYQGVRRSmwHigEy6bKd2MFLH1Xt1ZVybmx7myooIpy84C0Dara5bdbWAHr/1SVoApddQHLXlUUBkterKCqHMktrIBlf1kDRXJV4fk1j0IBFYVX1VtYoioKVBGrFKPQLyzTri5XFUNF6XQ6BKv1bK+qt7CUxQqqYhS6h2XfquT5R+lQ6AAspopvVSKs9LNNVcByDMu6VYkDEI9QBVhyVUGVAKv7kCRWRRNUxY7lGZaoCqgoYlVVqKAKsF6ASq8qDqubrpYVVLlurIBlrSqg4qo4Knp8PcNCVdWoRFXlHqubVVESV9XmI9B9YwUsY1UJqN6oes3JsB5tVQVxvd4LwfonCapyZFUp+W2sgPV/tyqEoapU9QcZVu9O3qo4qx7l5eWmW8PiqjACEVJFSa5hBSzxrkr+AMhVvUIVpcCCGx1Vj85LWMJixVRRvMIKWB+yqs6qAMteVTk1rGEj3C1wValp3MIKWLZrdXlXr6uqgtWyVhWHRWmuLlYVq2bkFVbAYqj0XV2oKqRPef261RqLqFhVcVjDYWms4ueqqtFo4hVWwHr3qurwqiqqptMpYBmrCrCGWRWl2whlxVSNPO9YAesDVhWpoqCx9KrisHLOjaWpyqxSjttRGLDUN4AUa1VR6AQsvao4LKT5XVKFskqId1gBC4zep6oQDotXlQ5LLyvKiDL7wmkClv2uSqkqBDuWPgBFWJoqsBpN3MIKWKaXNXJVcVWU+XcFFlBBlR2WoIpyoWoySU5hRb63vlfmqgRU0/l8Pi2wzKgEWCmxxYqrmjgehQHLtlVRpK2qrqocOs+wdFUirAkrK0EVxW9jBSz7tbpaVYSKkmEtWmOgMqZ3AUtQlSpVJc5hBSylqpDrVYXkxlr+H1SUcY81FljxdR2qyt+OYQWsuqoQCZWuih5WgGVWRbmApZQVWK3XbmEFLOWuyl5VeN5sAMuIikJnDcumiuK2sQLWq6DKWFUcVY7cWKIqDktRRcmqPI/CgFWj6gh3Vfr8g6p8ApYdVQVrux1ud+lfVY2gilhRnC/vAYtXla5qKqnSYfVyoKqCtUV2VVcJIxBxDStgdTq2rUpQBVTId19/CVg6KhmWOAKRtePlPWAZq2pqqSqlsWpUGixIklXl7L3CCljCVqWoAiqmCo0FWEJV6bAsqojV+uAXVsCyvQGkKFVVN9ZisZR3dR1WkcTXdaZqv9vt3MIKWH21qubmqsK/AMuKisM66CNwv97t6Nw5hxWw7FUFVJKqAquMwh5XZYJ1PNhUUVw3VsCyX6srVZVzOpXG4luVEdbxCFh8BELVHqr2FLewApZJlYzqb3btAkeWKgrjeOMWwX0FaBxiOCwCd2K4R4mzAjaALOHtAreueVpU92jbSDUuZ+q+79UcUv31rc5Ncio5f1xjv3z3zEyjgEpUhcW6KoufKsAKrLBYUPU/VqIKrKTCLCyHtfyqinsAoUpcHS7W4Cugiuz71ypVAdZCVaeOqDpz5oxZWA7rXjpV8ahqVZIs1qCdKmlYw+KHFVQ5LNOwUk6V9JgUFqsNqizLACvP1wtyWIGVfVgOi39bIRYVVG1sbMQvFlRlZxdLVEkFOaygyjosh5VqqqBKilwsoMrClT8MqgCLqEJFYReWwxJG7adKElShGhXiiwVUmCo0XEcFPaxqVZZhOSz+YYXoqUJksYiqarGCqpMCC6yWqDrjsAzDWnmqgAqq6GIRVGgYVEmFfgIXqvLFsg/r5/ZXlUalYV3Vz/hVhdRioc3j/AmEqmJz02FZhhU9Vb+QqUJbW1uNsL5nqvSNtX2cP4FQVRQOyy6syJ8AkqnSqqQdwGJTRRZrmx5WtarNzZFdWA4LqBKpAqzoqUIallYlqa2qfjeSHJZVWGvtv1dFUWlY5FansMhYbWKsRqOicFh2YRFVradKw+IPIIO1/AmsWBW+WPZhJZgqDUtNVVtYcar8KbQPK8FUaVgDroof75pVraqAqsDKYdmHlQwVYPW/b5UY1LDIYQVVDss4LK3qRPwDmAhWJg0GmYaln8BmVePx2GGZhtX+qkoDC6qkTMHSqmpWWtVo5LAMw2IfViCqEsDKalWZgtWsSrMaSQ7LMKxUU6VhXdWPmyqoqmFNJpMpfhTIVW1vbzssu7Dib/VksPRUKViTw6b6sGp4AkWVNB5PHZZZWFE/V45P/j87gMVRQRUaTtAUT6BWpcdKVE1nM7OwHFZaVKJqZ3cXsPj7R2BBVfMTKFWqJLOwHJaU5P0Dqt29fcDiqhisJU/gtGJ1MB6bheWwklxVa0dUSYBFryoCK99sUgVWQdVsLBmG5bA2GltpqipVgMWnisMqFqoaQ1WoNAvLn8JkDyACLD5VHNbmosNqekTV1G+sDsFqiUrCVDXA4lNFYClV0tHDCqqk3BerE7C22qtSqDSsSgtDxW8saeETOJ1WqiTzsBzWKlOlUWlYeABj+/4crHleoaJPYC6s5A+mYTms9lOF94/AAqrIBtkwqJrMBRZTJQVVpmE5rHRTpWG1QVU1nFeqpHxURVSh3Cwsh7XaF4CJYEFVv98XWKHwFOKHNlqVZuWL1XlY+ntVqWABlVQt1mHhxmo415Uq+4vlsFJNFdrb24uDVaMKCaxwZc1zUaVZaVW+WN2GpVHFqgKs+Kk6B6tSJeXjJlVg5YvVdVhrbacKaVh8qhSsitWvAqvxewvIF6u7sMi31bkqCouowo31qzRfb/4q0Ber87D4VBFVBBZBBViCSmwBln4CfbG6DmtNWnWqGCyiCrCEFWBNp1qVL1Z3YekHMB4Vh0VQEVhalS9WB2HtpJkqAqtSA1VxsPS57ovVwR7dSTdVYAVYQDUAqnhYRJWq/K1nMe+WWxNNFaq+4/V7gMVRUVixlS/1TOZdeze+AEyESgqw+PuXBlY5+7hnMu+8L5Kp2gv9Lh3C4qoSwfrpk57NvEeTTlUIixVdX1oJ1vOX9Wzm3XhnvCqKCqpaw+qfrT2scvRyz2rerV/Ho+KqGCyCamVYZf7heT2reZc/9FiaqSKwiKrVYZXlR6/07Oadt0BWq6tK9wBgRatqD6ucvXRDz3DeLeddcWx35S8AEV8sjqo9rLIsTz/he2We1u33HHtsV3P6nUT+OVkswgpfFYYEVsnLZz+9/q7fV/Zh3XLz7Vfc8dmx6P5Y0v03NXUR78+/0G9LevP1Z/9rDw5qAABAIABdD7Nqdiv4dQOmwwcVAAAAAAAAAAAAAAAAAAAAAAAAAAAAAAAAAAAAAAAAAAAAAAAAAAAAAAAAAAAAAAAAAAAAAAAAAAAAAAAAAAAAAAC4AwAAAAAAAAAAAAAAAAAAAAAAAAAAAAAAAAAAAAAAAAAAAGAB6ZVdTruEaw0AAAAASUVORK5CYII=;" parent="1" vertex="1">
          <mxGeometry x="840" y="200" width="60" height="60" as="geometry" />
        </mxCell>
        <mxCell id="Y-jfnIZlCBl2N6Mui_qn-89" value="" style="shape=image;verticalLabelPosition=bottom;labelBackgroundColor=default;verticalAlign=top;aspect=fixed;imageAspect=0;image=data:image/png,iVBORw0KGgoAAAANSUhEUgAAAIAAAACACAYAAADDPmHLAAAABHNCSVQICAgIfAhkiAAAAAlwSFlzAAADsQAAA7EB9YPtSQAAABl0RVh0U29mdHdhcmUAd3d3Lmlua3NjYXBlLm9yZ5vuPBoAABC2SURBVHic7Z178F3TFcc/v2dEEkQ92pISSlKqwyiq2kqCoHTKqKpGBS0zHtXXVGnNlJl6tB2VEqXaDCWoGrRV0VaFkkRQUaUeResRzCQ/EdI8fiS/2z/Wvc35rb3POXvv87r35n5n9kzyO3uvtc7d6+zH2mutDR100EEHHYTjF0AtsFxdgbwd5Ig+YIBwBRio0+igRXEo4Z3fKAeXLnUE3VUybwMc3SQ0OqgAfcAbDP+aD3Rod5BqswzoL0jGDjzg2gndwGTgBoZ35BKg16F9b71utO31wCTcR+SOwuSMqcCbwOXAtjF1JgIzgNewz+VXevC7KobGq8ClwISYdtvWZXyzLnMHOWAqsIr1nTAIXAfsUH/+4fr/15K8mJvkwfOAFFrrgDuAPev1xwE/VXKuAQ73e9UONKYCq7F3wiAwDxiKed4oK4E7gR4Pvj3AXfW2SbSH6jIMxjxfTWckCEZS56eVpchQPBXYKIMMGyHbwJmE2xM6ShAAW+cPAa+Q/GMvAI6imEVYP7IlXJgiw2LMUamjBB6I6/zTkBX6CcBz6vlDwP4lyjgZeFjJ8DxwIrL9PJ2OEgQhqfOj6AWOR+bfaUBXiTI20AUcB8wHpmNuMc+gowRe0Kv9RuefUaVQGXEyphJ0dgcWtGPnN3AKHSVIRDt3fgMdJYhBP2I1S5vzXaBX42U/T4NtTfAmHbMxl2Nuo0LO4JtdAfoQU3KUxuUBdNoO78Nc+Z8YQKfZFeDLqv0a4s81Njj8DHNP7XJyF0UzK0AP8C/V/gpPGm2NccgXEf2BTkhpozuk6pKEE1Xdd4DtUtpscJjH8B9pfkr9qjvcRwEWqLrzUupvcPgI5gp5WkqbqjvcRwGOU3WHgN1S2mxQuJnhP9BDpJt3q+5wHwXowjw7uDGlzf8bFo1e4KPAPsDuwI7A9sBoYJO6DG8hZ96LkRO554BF9fJcRv4TgX8y3N1qMnCfqufyI5cJX3mmAPdE/r8O2BV4Nk+hXNEDfAbxm1tGNs1/Gfgl8FnCjBozFL0HY+pl+QKLQIg8+ij5J8WLORxjgO8hX3IRw+AyxPduV0d5ujF9+D4XU7cdFOBoVWcxJbn+9wHfxHSTLqoMIS5V+6bINVm1W0r8KNIOCtCP6Vk0qWhB9waeSBC0hrhB3w58Fzmc2QWx0G1UL1sjjpL60Mal3AbsZJGrD5it6s70eK+0HzxvpfblHwdt9JpNQeFnXcC3EaOD7YVWANciPm9pDpObYVeihcBhiEds0rSyGjgHGAkcAszCPhr5hGG1qgLYwtXeQH6Tg/G3gFqxEXCThVEN8XT9IbCFI61e4F4LnRsZPlz3AEcgK924HzFOGRty+ThwtqoCjCR5JB1AIpqDMQa4P4b4zcB7PemdY6HzK5JHjU8g2zifH3iOp1ytqgAg6yNffk4Yhb3zlwHHBtCbiHlSdzfuc9YXgOUWeRplCbJrmEz6NFRmB7m0z9KBPYhd4CrMMLRgBegGfmch9ALwwRCCwF8VrddwnzoOwD51NMpB+AVrtJMCRNGLGZAapAAXWogswn/Ib2CShZ6LC9POwB8sbfPukHZRgFzknYyYFqMEngHGBgjSgJ6n7kip34PsOlyjeXzRUYAYjAZeUo0HsO+9XbEbw0/nhpBzgjhsBcwl/sf4o+VvWdFsCpAVwfT00D+EWyKEJPxA0fxTQt3dkPMAW8fPRQxRWJ5lRUcBkFM77UmTaQ9Zxz8UzWNi6u2H/TBpCeauo6MA2fhZMVM1ep1s8z7AeEVzJWK80NgLeBtT8LsRM7JGRwGy8TOwBWG2+bSiY91tw/+OyMGNbnsZ8Vu7vDuk2RSgaH4GvuYgRB7lP8CnInxHY04RNeQgKdcXTGm/wSvAow5C5FWGgHPrfH9ueX5ewAsehN/BR7sqQJAhaFsHAYoot2A6b852eMmuGHpLEHPoFDqmYC95T1KV83QzHoX4B87E3GHo8iSwcQq9HYC/pNCpIYYnH2TtIN/iyz8JcwL4DcP1qvK5ydWDsSeys7AJuJb1e3wbeoBvkZ5oqVFWYd9txKFVFWAkyb+J03Hwi6rRfh4C+GIv4F1MQZNCmzZFtoO2FxxCTixt9oNDPORqVQXI7BAyTjVeDYzwECAEOuX6Sux7fZD1iW2XUEN8BPap1+vHdAnziZdrVQW4UrXzdgk7VhG436dxIPZXPFci28OVyND9CmL2vRh7Jq+liNu4hnYKHaC9nUJHYLrCTfJlrK1/F/oS8EQXZmizT3mA+DDobsyY+bjs3O2gAMeoOkFu4X9XRA7zJeCB8ZiBjT7lbeLz6jZwqWqzMKZeOyiADg/zDgzZjOHn/uvqfysCB5I9aqiGuIQlnU5OwMzzO9lSr9UVQOcfXkv6x2Hg04rI4wl1D2N9LN+hnnziYgAGEcfSYxHhR9XLhPrfbsaeN3c1Yu2Kw69V/Udov+DQR1T9m1LaWHGBIpK0ao4uxl724LEDdkfOW1mfoTsJOyLBILr9m8Q7qWgHlBoSUp2EqjvcRwFyCw/XTppfTKgbogDdSHBmlMc6xNXLF2dhuqnNJ37RoxNELEihX3WH+yjAfFU3yHI7AtPf7gMJ9Q9FlOBl3A0sWlNrhHV+A2dZ6E231LOliElLFFV1h/sowAmq7mD9nb2wnyLyoi+BFHQhjqRRHrda6o0AzkRW6/+tl4VIHjzbHv52RfNpzPn9ClXnBdorSVQvkvgq2t47SdR3FAGXUzgfaAUbRObzKLbB3IZGy2P1OlHsgLkw/HjkuS1N3EkB8jezAoB5gOedJu73isCpAUIk4SJF/2b1fATJnd8oizBHgltUnR9GnulEka/SvokidQCtV6LIF1TjvJMM3afoa6fOMzF/hLhyumo7TT2/t/73uFSxIXmCm10BbHcIeKWK1cNklqtQbNA2/J3V84fU8zuR4X5bzPNtneZlgnr+WuRZ3B0B7ZQsOpcLJHTwR2i8Xxy04WeMer5CPY/OX/qE8m3Vdgzmy0fRzkqQ2+0hf1ZEfO7Bc0GZCqCfQ3sqQa5Xx9j26DOQVG55IG0K0Bmu5iAdPw4zjlAbcfQU8EyMDK5K0IvYE+Yjv0szXhmT+71B/ZgJh2vI+XIeLmH3KbrayvhVC++4ovP9a+W9h3hMxTQKDSE/aB9iINJ76oexHyAVhQMwbfulXBq1C/ZonJBVqYbLNvCxGN7R8ijp28DvJ8ixMfYI4yHS09stRPwJiriEYQRynq+PdHUp/Nq4PRBrWt4K4GoISlKCR4H3qzY7YeYGSoo01ieeIWUAsbQdTLbdUiOp1ZWEp9gr5KawjS2MssJmCr7NUq8fmZMXIAvDFfV/n4b55XVhZi15KkUOnUYtrvhcHXsX/lfHzqHJr471UYBNVV3bKhxMg00NOdAJxdkWekcm1Lf5zM1g+JSwBvm6G4cpuyFn6/rkUZcpHnJPSaG1ts6zYYwbV5cpunYp/I5AHwU4StV9IqZe3HGwrxJ0IWcXulPSjkE/r+o3nERdro+fgLhYxa0TrvKQP+76+MV1HnqH1ECp18e7KsDmmLuHSxLqj8c0z9aQUz0X49NOwG8t7ZeQfkuGVr7oiZnrwq4b8bTVLudLcDth7MUM15pdp+nqwFnKTWBpCrAJ8uXrzl+L7CaSMAX7/PcOsqKfhqSQG10vH0K2erdgTwY5CHwyheeBqs2Qg5xJ6MOcTpLc0hrQgZpvUFAq16xImqOSygxH+lPIJ7n0EtI7vwvT+/jOlDYuI+CsHOSflYF/oQh5GZ8kjyApaLSrlk+Zh9vlSMerdkOkZxp36YCDM8jeKHH5i1tKAd5FvvyQoawLyfjpw+8pklf7UbwHMwDV5omk4dIBfZjp2X3KAPG/WdMrwApktX8J2ebSOH4vIeuEFYhh6h7Ewpdk5LFBu4ytxi3FnWsH6LhGn5IUpdt0CtCK/E630E1LNZOXPFW3z4xWV4CpmGHnj+I+TVXdgZUrgD4UGl0wvzxfeHfM4JPl+Dm5VN2BlSvAs0qAfZKrZ0ZeL7wn5vZyHXLZRJnyVN0+M25QAlxWML88XngKdivjNwqQp+rnhUPbzdfgvwL3QdYXPhW7lfDHnnS6MWMkm0EBLqCkK+Aa6Mf0jFlMcUoQqgAbA9dY2tfwT24xCnvg6VCAvFmf246hb6vLWBqOtAgxiJxI7Uu+C8MQBdgFSSWn24acMI7D7oyyGvtF00UrwDHYQ+gfp+Sr4X9kEaKZywrcrYQNfAx7urqlxJ8zFK0AoXLljm4k1KrqjnUpTyInhz6Yht1H8DGSI2zLUAAQN7m/WeqvQc44SsMRyE3eVXdyXLmG9KyiUTQWe6FzbVkKQF2WWy1tasilmqUtDvuQy5dnI/Z5HcxRZfFB0mLPdbVdpgKAHJqdh11h7yS/+I3ckKWDiqSf15BatgI00DSLwzQ0owLksagaiT2lva98+vl1uG/xmmJxmIZmU4A8vpyJxKep9ZXPRuNp3MPym2ZxGIdmU4CshpXjkXQ1msYq4JQA+Xzp2eBjuCodzaYAur7rYi9uyE/7Yl3kSxpRXKcEV9N16Wh2BXBBlg5y5ReqYKH8SkOrK0DWIbrZ+RWOVleAKr5In0VmHvwKTXyghXDltSUSPRQtWyHxh5sgF1duinj7RjEOOa3MSx5d/3rkyHllSrtQfg2MRDys9VfvK28VSS2GwUUjxyOWxYuQFDVZXKwHkbk07jr7Ur6oCtu3xBSwFXL4ci2SySu0s5PKcuw5DjsKUDK0QItIj7XPs9zCcH+FjgKUiO0J77i3kCje65H97SnA4YgDys7I3D8W8VjqR0aUuFtOFyJriumWZ18i2Q4Q+oN212n78gvl3409wZcvv8wYgSR+mov7l74cuTz6fOQCiu0CeXcDX8EebBqXXaOGKFrcbeghCjAWM9uZK78Q/mMxQ95D+QVjIpLUwGUBN4iEeJ2NuG/nraHb45ZoSo8StvQuvgrQi5nt1IefL/+8+XmhF8n1qy+YsJVViDPDNIq7fyiKUchVdz5KMN1Cx1cBTszIz5d/3vyc0I8Mtdpb2FbmASdTjaPCGMzr4pJyDz9koeGrADqvny8/X/46nVwSv7ib0rywB3YP3GgZQKKFvW+rKgB6PZCUetZm3PFVAH3U7MvPl38u/Fxy2jQSMp2PPTdNDRlyr0aG+kEHmmXApdNC6sZhXUF1K+XXjXkXbXRun4ksApsRDzBc3qTcw7Yh0ncEyJLr2IY0/noBmMRPp9d3QjdmfGAN2eLNArYOIVoi9BUqScXmQeOrAFlyHduQxt+Hn75gwwnnWQgNEJ/TptnQT3re3cbXn8c2MEuuYxvS+Lvys12xk4rDMZMwPo9bapVmwpaYq/NomUf81tRXASAs13EcXPin8VuEeclWKsZgepy+jpzctSJ6MMPbliBOokWYgn1yHSfBlX+D34Osv2ZvATLsByWUvFgxfgfYO4RQE2EPhr9TXCpbyM+WH4pK+W+DeZnC+UUzLQGbY45oNuRpyw9B1fw5VzF8iZLy0haMHoa/17uWOpXa1puAP93AvxUzl+1KqyBtTvXZNk4vQL6q+bOXYrKS4jODlYk0Bcjblu+LqvnzdcXkN0UwqRBpCpC3Ld8XlfCPrir3U8/m5sWkRVC2Lb/Z+Bv+6EXnBSwbaSNA3rZ8X1TNP/XKtHYrGnnb8n1RNX9r6HQ7F428bfm+qJp/5R1StQJAvrb8EFTKv+oOaQYFgPxs+aGomn8HHXSwweB/i1fNUuSAJFIAAAAASUVORK5CYII=;" parent="1" vertex="1">
          <mxGeometry x="845" y="317" width="48" height="48" as="geometry" />
        </mxCell>
        <mxCell id="Y-jfnIZlCBl2N6Mui_qn-90" value="" style="shape=image;verticalLabelPosition=bottom;labelBackgroundColor=default;verticalAlign=top;aspect=fixed;imageAspect=0;image=data:image/png,iVBORw0KGgoAAAANSUhEUgAAAIAAAACACAYAAADDPmHLAAAABHNCSVQICAgIfAhkiAAAAAlwSFlzAAADsQAAA7EB9YPtSQAAABl0RVh0U29mdHdhcmUAd3d3Lmlua3NjYXBlLm9yZ5vuPBoAAAuGSURBVHic7Z17UFTXHce/5+6ysC9UxDWgSFyDGkEI+OAZxJgmdtIk5KGjIa9p2jgW02mmmWQ605kw0//STpuZqBlnOk7idNpGjYQkajrVhPpAEnFVBJOoIESEICYq7PJY2Hv6h0Ji4N7l3t372ns+fyHnfs/54f3u7t3zPedeAoV5/sk963hCqgjgBUgLBap27Cp/T8/aotzKdZSgCiBeAC0UqKr3bda1Vi5Eyc6fXVO9iQBv/fT3lJLKHbvLt+pRW5j30iaAjtMSgsq6E5t1qY0ExQxQUbEv0Roc6gTgnKA5YBniUrZ/+GifnrT5+S8lcsNUUMvZHSlHj76hK22kcEp0CgCW4GAmJv6DAMDJ20cy9aflRbUYGNCdNlIUMwBHSbzoASEuQW9a3iKuDXFUd9pIUcwADGPADGBymAFMDjOAyWEGMDnMACaHGcDkRDQTWOOjqSEggwJxP21rP3Exp/Nc51+EtKnzU19JXzL39ERtamo7mvryRn/u6b7k7TzfvEFQm5G5bcbMtNaJ2rTQEgsdjOOshzeud54U0oZDlgE+aqCOYSv+CuBFuX3oBd/H3VqXEBEEgHuG7ewUt3XFhqcSr0rVy/oIuHXyN8DgJz8WoAB6e4KLbvhHauXoJRugxkdTcfOVz9ARfVeCmW/+058tVSfZANSCeWCvfN1BAYCnJVJ10g3AwyJVw1AHDrxNuoZhapgBTA4zgMlhBjA51tEfKir2JdqGglkhDg4xQcsXLTne/HnKV8aQzLfftM4vyH3pfrFjCCX9nDPhzOgaQwIAz63dUwlK3gDETz4AJKcno/hpyd82dIvRZwJ/TEfbZ/jad3QyhwYA+tox35Yt1ufWVq8HxWali2PoCidANhfkVfZwlOJ1rathaAMBqeIIMFfrQhia4bVS4CIBFqg98qB/EP7v/aA8VXvo2/i2vUnT8QmxIDFpJuyuJC2Gb7VylFZRQv6l1oih4RCaDpxB+8k2UG3PPQDgXMtBrUsAQDDDcxcW5ZfDGie+rSGaUNAq7p3dj/+bUlIJIKDGoE0HzqDNp4+Trx8oeq6cx9nPa9Qa0E8J/U29b8tOKwDs2F2+dc2anTtc1JYdbh4gJSMlB4DgihsxBv2DaD/ZJkdqCnqunMdA4Brszmmy9KnehW9/daJuj9gxhJL++OGRxtrmrX7gRxNBu3at9QOoCzdI9R/oiNwXb+D7AHvli0LRd71btgHumOM9V3/yrQNSNKpOBVN29sPD86oOx7IAk8MMYHKYAUwOM4DJYXFwDCEnDrYCt+Lg4NAbPIGDhLlQ7zrfBWYAfdLZ+tVGQuhG0YMIBT/QHyjMq2RxsIlhcTCDxcEMwMtR4KLWVTA0o5XjKK3SugqGNmgSBzN0gTZxsNokJdtRtmoOZqW50R8YxpnTPWio7wIfxVVI+YVZKC7Jhc1mQfOZVuzfdxQjI6Go9S8F3cfBapKd68GLm3Jhi/9hL2t+8SyUrEjD1r+dwODgSMRjvPDrcjywumDs37l5C1FUko3X/7gNweBwxP1LRfdxsFq4E214YWPObSd/lIWZ01G+dn7EY2RnZ9x28kfxzpuNx55YGXH/ahGTBli1ei7sjnG3LRqj9L45cCdGtvYub9ndgm1LRNr0RswZgBCCwpJZosdYrRyWF6ZENI7dLmwgh12xeztHnZgzQGZ2MqYlhT8BJWVpKlSjf2LOAMWlsyd13Kw0N9LSExWuRv/EVBzsdNmQkzdz0scXlc7GwU8VLEhlTB8HLy9KgTVu8m9q+UWpsDviMdA/pGBV6iEnDuZuxsFkMyaxNVzvFJdK+1x3uW1Yt36VQtXomtE4eG3MxMGz0tyYc6f0z/TSsiUKVGMMYioOvnelvKt6h8OJud7IvhIamNiIg61WDssKU2XrK55ZHcVqDEVsxME5eR643cL3SOy67BfVZ2XdFe2SDEHMxMHFK8Tf/qt3fo1v2noF2wlnwaqfLY12WXomduLgqdPisWhxsmB7X28QZ071YNr0BMy5U/j5i4+Ul+LgfxuUKFE1TBkHF947GxwnfO/q+iOXEQrx+KKuC2vW3y04T5CS4oHb7UBfX79SpSqOKePgcMHPsSMdAICAP4jGU1cEj6MUWFchOokWkxjaABkLknBHqkuw/WLLdXR888Mzl+sOdYj2V1xyT9RqMwqGNkBRqfirv+7Q5dv+3dzYgxvXhad97XYHFiyYE5XajIJhDRAfb8GS5cITOMPDITTUd972u1CI4vOjlwUUN1n/zANRqc8oGNYASwtSkGC3CrafPN6NQGD8urzDtZdE+114txccZ9j/FskYNg4uvFc89//q7HdI9oz/U0Ihiq7LfqTMmvjagYDDgz9fjv1766NSp5qYJg5O9jiQsUD8xorP/mqx7P4ferjYkAYwze7gkrI0EAUfW+XxzEDiFBd6b4hPIRsY4+4Onsyiz0ihFHjaBBeDhoyDFy2e3KLPSCkokvwIPiNivDi4eMXkFn1GSnx8ArKytb/YVRhjxcFOlw33SFj0GSnr1sf21LDh4mCpiz4jJWN+eqzOCRgzDg635r9m9zn09QYl9XnfA/Ng4YQmlDg8/EgRaj44IqlPrYjpOPjmos8pgu3dXQHs/eCC5H7diQMoKBIOgR58yDgGiOk4uCTMqp9wU7xC7Hh3v2j79KRpmDpVOHE0OoYxwMLM6YJtoRBF/RHxkEeI767ewLVr10SOICgti92Y2DAGGB4WvutGc2MPem/I393zyf5jou2DA+OvKwYGhMfr7x+UXYvaGMYATad7BNtqD7RH1PfHNUdAqYDBCMXhQ6fG/dp3/EvB/hoazkZUj5oYxgCffNQ64cre/x1sFzXHZBgZ4fHO9o/G5QuEANXvf4qBCd4BGhvP4z8TvHO0XLiE6t21EdWjJoaJg4PBEP78p2NYcX86Fi6ajt7eIZxq6MapE9F59Osn++rR0dGDX77wCyQlJeJ6rx97dn2GQ7XjX/2jbP97DZqbLty6SZQVTU0t2L+3DqGQNjeJ0v2zg6+2X8XRf+jrK5U+Hhv3A4uXPQ5P2iJZWvbsYMZkMW4czIgehoyDGVHFeHEwI6oYKw5mRBfDxcGMqGHMOJghTkzHwYzwxHQczFAGZgCTwwxgcpgBTI6qBiBK7ueKFVRehaxqHOxMcoKQm1uvGOMhBHBPlb/vQfe7gxNcCUjPnYs2H5t9nohkTwbszmmy9YbYHZx1fxYIAdp8F9k7wRgEMzwZyFxertaAY3GwlVK8ruYnsyXOguzVOZhfsgCB7wPgeV7F0ccTt9et6fgWixWuqTNhd8l/5cuFgFRZtYqDE1wJSHBp/2ydO9KztC5BS1gcbHJYHGxmWBxsXsbi4LHrvzVrdromEwdnr8rK8ebPi5k42PdxdJaV6wGe63r7013bJcXBkr8AVJ+kZZTgM7lF6o1YMoDnTvvLv316yptSNCwLMDnMACaHGcDkMAOYHMkGIBy02fnICAsPTtoNkiDDAKFhXADAYhy9QQBwRPLOW8kGeGIp6QKwTaqOoSyJnvim3z3lapSqk3UNEDeC31OKt8HeCTSHAEj02JqtU7gVcvWyeb+BpsCGDIxg3FMb209czOk81yk4Y5g6P/WV9CVzT0/Upqa2o6kvb/Tnnu5L3s7zzRsEtRmZ22bMTGudqE0TrZUO8NRy+OUKl/BdLMKg2FKA55+sFp0xJBQr39n9WK2etAVLN5URXlhLOaysb9isK22ksK+BJocZwOQwA5gcZgCTwwxgcpgBTA4zgMlRzAA8oeJ3b7bwgndU1krLhcS1Fp7oThspihnAOmRpgvBCU3+ADzXpTUscTlFt3JD+tJGimAG2f/hoHwh9TaD51Vu3pNGV9uaGyYm1lNBXRxdS6kkbKRalOgaA083vHb8na92XALIATAFwDgSb3t312Lt61XZ0HT8+O2XZlwRkTEtBN9X7tuhWGwn/B2rDI3ig/5FQAAAAAElFTkSuQmCC;" parent="1" vertex="1">
          <mxGeometry x="845" y="410" width="50" height="50" as="geometry" />
        </mxCell>
        <mxCell id="Y-jfnIZlCBl2N6Mui_qn-91" value="Reporting" style="rounded=0;whiteSpace=wrap;html=1;fillColor=none;fontColor=light-dark(#000000,#000000);" parent="1" vertex="1">
          <mxGeometry x="809" y="257" width="120" height="23" as="geometry" />
        </mxCell>
        <mxCell id="Y-jfnIZlCBl2N6Mui_qn-92" value="Machine Learning" style="rounded=0;whiteSpace=wrap;html=1;fillColor=none;fontColor=light-dark(#000000,#000000);" parent="1" vertex="1">
          <mxGeometry x="809" y="368.5" width="120" height="23" as="geometry" />
        </mxCell>
        <mxCell id="Y-jfnIZlCBl2N6Mui_qn-93" value="Artificial Intelligence" style="rounded=0;whiteSpace=wrap;html=1;fillColor=none;fontColor=light-dark(#000000,#000000);" parent="1" vertex="1">
          <mxGeometry x="809" y="470" width="120" height="23" as="geometry" />
        </mxCell>
        <mxCell id="Y-jfnIZlCBl2N6Mui_qn-94" value="" style="html=1;shadow=0;dashed=0;align=center;verticalAlign=middle;shape=mxgraph.arrows2.arrow;dy=0.6;dx=40;notch=0;fontColor=light-dark(#000000,#66B2FF);fillColor=light-dark(#FFFFFF,#3399FF);" parent="1" vertex="1">
          <mxGeometry x="680" y="280" width="129" height="40" as="geometry" />
        </mxCell>
        <mxCell id="Y-jfnIZlCBl2N6Mui_qn-98" value="" style="shape=image;verticalLabelPosition=bottom;labelBackgroundColor=default;verticalAlign=top;aspect=fixed;imageAspect=0;image=data:image/png,iVBORw0KGgoAAAANSUhEUgAAAZ0AAAB6CAMAAABTN34eAAABWVBMVEX///8iHh/39/cAAAAdGBkJAAAfGxwXEhPz8/O+vb22tbVqaGkWEBHg3+BBPj4hHh+ZmJjv7+9dW1wQCQtIRkY4NDWDgoIoJCWvt8D4/f3FxMSKiInV1dX49/fEydDl5eVVU1Sop6cvKyzN0da5v8fT0tLX2t58entycHGioaGSkZH03dxEQUKJl6Wsq6w0MDHkMifsZlvyvbr16urxrKfvYVGiq7aWoa6rs72+ACTJTl/HABXRUV3ZYWnzzcuiABy1OFakACvmPjPoTULFKkDsfXbwpqHdJijywL3cSk/019Wcbn6hSF7Hsru0GECvACnUiZbkvMTDO1LSdIHfoarIpK7UlJ/FL0TSaHXGBCTJESrMLEDIAA7VO0bgg4rRSFXheX3WAAnfXWHGX3PhgYarABvMe43ZMzm8TWbfAADhsrzrcGnTjZzvmZTreXPIan7vkYq0I06gAAj+iH/iAAAXkUlEQVR4nO1d/VvaSLSGTL5AQgkBIUAI8qWAooig1q21UIv13tvWrbutWq12a+3WdWv7//9w58yEJHyKlm59NG+fpwIJQ5g355z3nDMJLpcDBw4cOHDgwIEDBw4cOHDgwIEDBw4cOHDgwIEDBw4cOBgM5lcfgINBYPL5jEPP7YSUzMiaqP/qw3DQCzmZzYsMRuZXH4mDbuSjWZ2hyGi/+mAc2KFl6iY3jCY5ru0WgUku1yVGa7PDyI5ruz3ILC/XsyvRZCavywwhyVFttwVyfW5FTiZlKZPFoBRJ0q8+KgcE+txcVNTEaAYbjSjr+UwmgxlyXNutgPY/y3VQ0TKmB/MDbk2UZSkv/+oDcwD4/L//p6kqw+hAjyEKJMap5twOVF+83Hi1U2XUfJbSI+bzDjW3Bpiep6urv7/e/cObYVRVzzjJzm1C9cXvX3YfYoZWnz48+vOP6q8+HgcdqP7+dFut7r55+2bv3dra/vu3rxZLt4YjKSf+6kP4xdAeru6o1YOqVtp59fb9/hrG3sFvr3fXS9cvuOmSbTYZUhPSQ4GbHpnuR6h40zffGTxcXVffHqk47qhiaX337OwMc/Tu3d7B++Pd9WvZkYCC1pNphPD/HhS56XH5uXLCyYxdv+2XvhxUQbOp6uLh0fYh5ujo0eEe2NH+wdvd9VGtyM0iczplhfXBX+9NJziBpsnfyQnjhftaPH//vrS/hfMetfSotasyh1vYjBixtLN7/OZgf3VvdfXhn9ujjOOOsJPtx0Vf2vdDBxVDU/BHRCn4oxUCheL9VJTV/aNHx5idxdbhNvZwx/CYWJKqrj/aOzgAgp6+/nKll+NDKWQUGhg2OKt0bGR6IrxoWQNjpllae7cYKpMtPuItp2Izk97i/UzG1tcenVWZo5MPVbCgZ4eawU7paP/9zqNX668evlw9PX35185w78IGPcgQAVMolwJ29CCxAFc5xPrC+GE5JcdCEeztpOl5hU95yMZYSvCFEvDIE3Qr6Wkd3hcS/MGgNpHiI8HglFZOTJbLucTPm4LbjItWa+v45Jj0rtXFVon8LX1sne1q2sEO9nOl3b9enp6evvhUGjIKm3KFefow7XeFgB0Jga9jUsgfL6ZCLlccxVEKM+FBaDoQd5OtHjRfLIa9+NEMmo8XJ5CSw1rPz4ZTIS0Y4iOpUEErSxNB+b6yo521zlofGeLR1PWTdezfqhetk6Oqqm6vUa4wQZ9fYnzeGTgKZmcKwSzjCffa2ZlBcXgVe7244ovhRzoXgSCCWcPPwiy4Q+y1CmgGdouhec2KO74U/AnECrFA4X56Npdr6V2rdbEuQk1UXf97S9WWzk4+bMOzIyrnKEGvXrx88nhjED+YHYb1w6PZiGZjR6KRHRCnSiyOqE+TQINHDNGtRVj6YBI4M+KOSOMOE/DG7qkqwNBardbCQnNzsQrsrJfOT1pLGpiSeHhsdrVxJNK+bDx58vhzf/+G2XEVUc7lykH4sdgpUIMCGLSEOON5OMJgy5ogWkIyNDQmJt7NDja8+9zY+LjQbCxgNM6XlhY2GyfnJermFk92Vct2dj59fvHtycvHj//pNwawI4M1BDnZzs4kMgNGnD6cdxvPg5zoElMIzejAR4G+SGjqZudeY+vvxer6RaUBaDYaSyrlRPuwT8OOKoJyO914tf1148u3x483+pgPsIMtQadGYLEz3cuOIR5cKQUUtCeEuAS1OJfLYacX2skFTm+00rPzJmBznUgEdevkEdR4qjuvn66tPtwtaerO4y9q9Z8nj5986RmDsCOheJyUDOyerdzexWAnhYy0JuKnfws4NEnIKAt4wIhMVeCwg9G8VGkth7DTaFQWcdzRnmP9Jm59PFhb+223BIRVv21g3a1ubzx+/Gf3EIQdV9DNkwm1qwJ/exeDnYJR3/SYdU73vMvlRzTuB5HerdnuO/7dJL7sWbNSqyxVsHdbqC3iqPNh++Lw3drhq20qt5mvp18Ii+Knl48/dQ1B2YkhEAZ2drBrC+L5lqZMdrQwCoBq5rAocMUJFxNESuN3itNEfxuezRX2JZxeuuviHM+6eIF9Wu1SrS4Sfs6bOA06aT3aEg1loO6efm5rhC8vvr/qHAKFyJ8wtZQw1KiNWuYMQukI6Oq2QND9iAvzyA8ukGxLgyQrI+QOI0Jo23awmSFh+ud//VuOZ+c4vGw2L7Wt5iIONSLmp4FlduvwqKSaqm3n5ZOSKa+3v33vdG4xYjMuY0VcDLQz46FPEsXpSS82AcnTtoNYfDoeo/sH8DZaI5KnJqcD9B2i10hvPJOT97RGYMOzfzE5tSVGvayVaJENBFzrbL1NDUbpzemu9VQtbXwfXDhwME48u6ye17aw/VQuYearz2pYGyy07PSID0+/Mjao1Y3Ht6bNfbdxsXlegf7BYm0dU7RUIdJtsYn52WrT83r1YZXpomfjVx/3/cBmk5QHxH//1bSt82btcqnZ2FKrx5ieRVo22N17U7L5NUiPtO0XPboaBxtdyiUkfVjpRdSlRE7Sx7GqQ9QT8Gl3e4FIrQYuTN2qbW1v1mqX2+J5AzIgdbHV2idbdlafbqsGLWJp+8s/Xz9vfPu28bVrHKmYcnMIg1PmJwr9Cpe6d8bP0l3Y2WlPn2mV4vFi3Nv7ei9yk7MCHUrwz3jvrPKuNnGao6ni5vlFpQaVgovmOW33bD9fO8M2UzrA5GD1Vt3Z/fT525Pv31/89c9Oz8KdRBDPE++m4PHE9citWFBBPtbYhWd9iJ/sodCDFAWNUCPw+JFiHypyV+lZbNawxWAdXan9i9MbdatZM9yYWn307oMo/vampK3vvt54cfr99MnnP3f6yoEiJ7g7QBNTC7kQ6trDzStK98IoD3K7hQnXFWAmENs5EntX69jnl0u1WuXyvFJZwqmnWqo1Ta2mah/Xjo72Xr99urr6/fTF1y8D+6MTCE5k3ocdDUdtqIudSWM+WYXu4iNPec7fuXJnJHbkeeUBHQqPhBT8aTx/R9kpNbbV0matUrmApQVM9by5aJKjVtcP9/f399ZWf3+9M6xzPcORqY7MeGO5mKcwEUFCBztMiqNkKKE47BKbmgkjH7wkKDH7QKOwo/kFMlY47onFYp5iiuXYu8rORQV7sEvMDnVnl80lqtNwvFk6Plzb21s7eDvYZihgTrGfsvrLTCxlZ4fxEyYUPmALNDnqnlgu1zXSVexMAtNCxGO+IJfD6G6yU20squsV7NpqFyDPlprPjJ7OxfPWu3fv9h/tXsEMIM2CEOh0ZV6bKkgpwB6a7hJpCT+8zgo25zYCOxKcCsJs51iBuymrL2siFKc3S5VKFatqTA6hprZwcnJyeDTaYtAYnq8HyDNw+yT1e32E8gQxA7/1wgjsxBVQAfdipUFpYWmzuXReqWKr2Va3a89UDVPTWDhZeL40gtFQTGO/RXsIfREjfg/F+m2bAevhzHWko7Djx4bao/XuJj40m+fblyChq7XFamWp9KzSaCw0NhevU0ULwXwVBm4OQ3hBA1LMEER4axH21ezIPhCE96J2vfj3wjNxs0kWSG1ebFY2m41G83Lkxe0GYPr7+S2KMpiOMjlgq6TgyfaZfFzNjg7DcffBsVVPnm8z/zagBKqKl9C2vj41LljJgeerPHAr5o5ND8zl44p9tkdlZ5TrG5gxX7swYjlibLd9eP5Iq1YwOSqzjYNNo7G5daMvNDQSkKgz2LJcMhiP0r4SawR2QEj0D2L2T51MzUci4WC8U0gmMIwO4WQwOBFwiTl4qff9En41Z9HBeKZD6UjEHwx07Kvhd+foeJ5pPN4UFAoL5cBY5P3H52Lp7HkVugaNhYXKtWKNHUEcO9jZARtnsGTg3QM2Aibg3WHjydXsMBF+iKOkKKShCsfzrKCgsE1LilBcSOMH0ixSBMGHxAR+pU9JUCYvtw2aKbqhQAjjcShk41tCnEJWu8bmkU8QFB5L+3J8Jnbjq/5s2N0vLbaOxdLHxslJ43JkhdaLKXI6D1DUPH+FxPKQd7eb1VdrNmCTF4acnpLfXoVj0YTpEESsKOBEiNGSH+8TXbNg9/F+38gMhrkIx1vjCcg6MyD1EoJw3QWtS6VduUQ5MC1N/bhPXd/bOmpdrD9qnZw8X/yh4Ugo4N19I3WCzP0wiSVyNtc3AjukMCGkBm6PkXos1PMQAn3n5sx9DXYkPNvYDlhgB3jg091jgApte88po6QB45EiPF2RD5DQA2Anhuh4LGYnh23HVfhhdkr7R+/Pjj+0TlrH6z861jTJ+dP9wqEXvj079N32sDVKJQf2dyupAUE6Bic6z/kDsUTCM81CCYlrT6fBTkjgOTYUDLFINgR6Vz0dbII1cuQy1HdZFCrgGOOdUEgCUDT3I+xEWB5FUkG/D3u2YjlX8E4N/wJXo7R/cLZ/uPfu8NUY1gcwaXp69TkqkGTC8IYNRKb2LqOwkyP1cF+6rzLQQWSwbFuFyBN2rwvs8H4PYoUCVH7EMkMdpdK1MKuID5orWB8mmJ+lQ1GKb/sCYIcNBjghQtp/MtatcsBbHpz6jYjqU1J7/u2HzYYiQRoCPEr1mA8ohisy+4BiiYqROgjkdMbnc3fdDpACjRGxOVmoRrDz9DFhJ5wSIrbDBE3JRzpdEU4CeB+JbBqcd0LI9kHwhdrnErDDz4Z9fnsUFH+4EViFm3zsvR3pit2RkOBJnBW4eNeMXVFHABDXb8zfaN23Mo3CCt9jrF6Ya1/HOQK5smE8IolDfEdV3JXmuyUNEOaj3rDIgcu2fycZWrJGvgXs4O38eHPj0tOXq6tviUob18ByiHRw3ArbOWOkjjAwUyXw2gLzaOxgGeUzmndd7g1iUpeDheGNISk7XaYMvtc3Y38F6oY0FDEkKnV+Brg9YwjKzqAi1Q0B5PxFFfQY70JdNGQq8ttPTTgzucHla4Dn+uzgeELNB+tl+zfI2cJ5GyL0TulFdoQdnu80b4mYm80dASWGLyxzvVFTAnMKGW99YMvVxoP1l6cbfxiecpz3/UqESDzAM2bLFX8SO3hPmoU88Ck2y5y0wrkFiBQcieOEnU47cVHnay9mgLEZg0AU66lLzPPtfIuwo4wj9zTx5fvGTj5JWZHz4xzZ5Y0oxL1xfvOETg+twdF3XTvuEDBFjro3NGGeYsSxdSuTSV87sBB2etLmbgPBlPAKmX2Gh0Sm+wQGtmlVnbAz1nr5Py92RTWTpR+ZHHNLkYlT9yaYjVISd4arApidtju6Bjs4ZhruTWlrJkhe2jxbIPrYuJwOChfd7BElp5iyS7fiEKTSvY2rGdOgiGbjxziHXz9VVUZLUnZ+wn1aJaoO2HaCF7q6VxZQrpfv2OChxirM0xkiTe3IrL8Ds2mzzEp46LEFknBZ9l3gzPSUlCXS/j7jUSVA8p3xhZ3qpx2ypiOZhVNFTP6MtRIBmo246diQ7F0x3SCR2qWua7IDK9uAHuMyOVIPx7loJ4hOI+MTdnpvfQVvM+I8xixr1Qm4QeNxFjup0Y92OLQ/ZEKOlslCwMm0TYcZuvL5uoix4G+MImIAgsrwe4H5baL7uuzANVik9lVov7s/bOz0eD7qftsOL2FpAmJG/WHZzhWFkNEhZmVjpZqUTeKxs8QfyFJGGu861wQ5vah3oBXoYQ0p0V4nvT47tPfK84yrvXKL6wMqI9s16m7AKcQZ0gvLPqNOQF93s33HI2fTONkR621yGDmblcVsxsXI+aRxw1ZtjMHNazWrZVKBHiYLiKAW2k+uzw6twZKTmVRl/B5vH5iKuh870NEzakkajiqm5i4QVdB3PDJpY2SHWZasn6TIZJPJbDKTtcxmrDcTBC1gpDDQQBkaOUGgmvNxE3ZkaCH5oJBJktHU4D0HsUPzGjIDQLBZsoazzDfk0tUxslNPWuSIefj5g4wtF2XGmvmQ0pmPWGPhik6z3tG6uwk7tLuachlpf5+40sZAdoAGqiyxfrOKDUDVkE7SGNnJLsNlHxoG9mbRaDSb7Sji5Mea+eRgyqn3liGltxRRD8AvWe2vG7FDitzwCTJ0x5TBxamB7DBuYwNkTJYfTii99Ws7xsaOPgemozF6JlqvZzMZTE/SftzjzXwSyGSHhoWBkQc7owe2rTdiZ8qsfM2yfWoBFgayQw4SHBrW0LbE1OUevnZubOyszMlYAmTr9WhSkhktG5WSURs9Y76Xe8zWESX9sK6qvQkxTdZTmafnjdghHT7ypsnhvb7B7EDEAhmTYjvqcKQ71bPqwER7XcGPQp5bztaXV4AZIgrqeU200aO3HzFdf2+Ioq2hhjMS0gTpJzs0uhTUOttvxI5Vj8iR5VkDT3bafeu7Cac8OC3TUWcbm5QAlYHJ4LhsJzO3nNGZ9u+ISfUMfoTpMcptriQxHdm6QPY6l8oywe7DBzduJhD4hPSR4kGv9cizsEWxnaxXs5Pr0VAkyBlzCpltn8VbxtccbDu0fpPAjq2jAUH6O33m3xhvXOwk55ZFra3Z5HqWPBQzUSoN8th0xLz953euE4Y0H9u1RAgKV+YiKEyCseygO/Z4SUPVN2sz1KvZSaCujpvot2l2mml1DSBPGP2BIexAXqYUZoSuCFkk6VrX6jk9ZRzB+NiZy5t6OrsiGo/y2SjmgckmpWSHaBOvo68ZnkXpgOW4EqmuCwtcEk+WHXDhsnUCiF7aDvKF7ZZH2Akycifsh5ZALArZxvGkO5wjZC5uJWRzbnJAQFezA7KcDYZ5s05gfDdYZ+zmgrawrMe5tvMbn2ebixqMaBmrZsDImWw2j/PSfOfJn7+OSCBdEI7zT5djsZh3MkTWk/n89hEl2mlmERsswuWE3mKKpdV/LtThQ2mljO8E67btA3KQ5YRU3IvHKU+HyTCc6e50gSXrG4IeyLPFhHeC5cxLh4axA58c6e3N0QVAgm8mpuMvJCfKQZ9iSpxxsSPOzc0ZpQLdXjMQJUhLs92B41p9H2AHpt7HkXsV0JbLfOeQYor2TXmBrAIkl+K6OxdWEvRlp+OK6gTdg1XIp9GLg5HNleXoAQicwkcirEIWCI5iO1qEHFH30jZ8RMTufcjnjkQEruOK5bEp6ujcHPmpN0YkigBsiBH1ZHQlSujpFFRycsAofaG57StZqY0Ee+id4rnOq9gxUx2Lkgn6Vpk7rqiW6AJPGwTUoXmleeNwgFd6NO1Wregb0o8hF0N0L0rAiLmV7vFSYvtYxsQOM0d9G850CDU4L02u1FeyeT0bzcvYuWVsM5C/XllHjqfbxkDOajTbLyEUA/PWHSCg4SxM9NZ34G4SPeA4uyEmZljbnSTw2RzsUtBaUUDm0cA6d7OxJsKq9EHtDFiyrqA+WbM8zXHWeBwKeexvse7p/CPQMT1ZRsuDBRFqljE1MuPKrCRJAMIEmaLt2g1tLRcIpul9USKp4sB8I1dMRfBe5IL2cKxfGqEXA/3QuZMYi6fc1EGmg/1u+SJPBSOofTR284SxBi6jnYKtfb+5HrA+z36NiAjvGM96qTxYj1zXXZganJhmdBE8nL4SNTSCJur5TB4I06/l2NrQZAlDviKPZfBeQeJDrroEZ4RPG9I0ZOj2sTWuNJ2M9/N+bAasZzkpZ+p1MBoj+4nWLaVNwhIY0U/+aSJmFi7y4H6MnjsHsY7pWc7I1k+PY3WdtJjBL+v5ZD6f/dk/RyRH2IFXYd9jJMG76Zag1utR0TIbPYPTUlFL/vxfVJaGVUbvL+QoiAOTn2hdN6wGmj5ZKMUxcvQ/uKtJjFwVI9yLC9uvA+BnOZrHkkDTMst58hvXEuQ9WCYY1Z3/4jCmaOHaoacbYnIZ5IGuyctJLOAy2fqKTSYw2f/mXgDFwX2F+w4dCKrX61JyJZrMW2U3CEVRnM7FPTHM0fDlzz8KctewjguhHJiQMyuYoTmc98gQd9qRSEvC2Rx3BSZdntTPPYKUwvO84NAzCNDKxgzVsf0QjqAlF4UNRVehKBeH3xTghyH6fYIgKOm7eWu1MQFHnmS0vryMo08mr2dIiQ3bDhOSBjfUxwONdm/u6g1XxwpRzwPI45jxz4EDBw4cOHDgwIEDBw4cOHDgwIGDe4n/B3+BjXOLALmUAAAAAElFTkSuQmCC;" parent="1" vertex="1">
          <mxGeometry x="150" y="55.91" width="183.11" height="54.09" as="geometry" />
        </mxCell>
        <mxCell id="Y-jfnIZlCBl2N6Mui_qn-99" value="" style="shape=image;verticalLabelPosition=bottom;labelBackgroundColor=default;verticalAlign=top;aspect=fixed;imageAspect=0;image=data:image/png,iVBORw0KGgoAAAANSUhEUgAAAIAAAACACAYAAADDPmHLAAAACXBIWXMAAAOwAAADsAEnxA+tAAAAGXRFWHRTb2Z0d2FyZQB3d3cuaW5rc2NhcGUub3Jnm+48GgAAIABJREFUeJztfXl4HNWV7+/cqq5e1Jsky7Ykb2BsdghYMg4OeUlISGaSl5AEwkd4IUySmbxMwjBDFi8iE70vkYWTDC+BwJuQN8kLGcjCACE4M2ATMMSGYNlmCQ54w0a29rVbrV5quef9US3ZkqqlbqlaaoN/3+fPdnX1qdv3nnvucn73V8BpnMZpvH1Bc12A2Ub77sZAgLXPEOMjEDgTAMB0mJkfi5i+f6fLb03NcRFnFW8rBxjc1XQlBP2cGLVOnxNwXAr6bHTVhqdmu2xzBTHXBZgtDLY0/x0RPZ6r8QGAgUUkeevg7uZ1s1m2ucRbPgLw041qPKj9AMCXC/oe8G+RgP73dH6jXqSilQTe0g4Qf2FTJQT+g4H3TM8CPadY8hPBNQ1drhashPCWdYDE7tsvtFg+CuCMmdjJzguujq7asMelopUU3pJzgFjLpr+2WO7ADBsfGJ0XbI+/0PxxF4pWcnhLOQAzU3YC9xiAsIumgyz4oXhL0+3M/JaKmm+ZH8MH7/TGBxM/AfCZoj6I8Jth6H9TU9eYLOpzZglvCQcY3ru5xrSsRwCsnqVHvmSR+FhF3frWWXpe0XDKO8BAS/MlAvxbAEtm+dEdgLw6Un/brll+rqs4pecAg7uarxPgHZj9xgeAakA8G2tpunEOnu0aTskIwMwU373pWwD9M0rhNzDuDNfr/0TUKOe6KIVi7iuvQHTvawxqKc99xFRqy7L/tEh8uqJufWyuC1IITikH6PvT5kWqYj0K4NK5LosTGPgzpPWx6GXfPDLXZckXp4wDxFs2rWXgIQAL5rosU6BPEl9bXtfw9FwXJB+cEpPA+O7mLzDwFNxv/N3ZP26iUjA9Ht/d/AWX7RYFJR0B+De/UYbOONjEIPfTs9kNneohyHhQuxdF2EAi8L0hmvcVqvui4bZtt1CyDtD3p8awKrT7QfiIy6aZwN8N1W3cQEQM2KuK2J7bv0HMm+B+VNzGXrouetGGAZftuoKSdIDYnuazIOXvADrXZdPDknFj+eqNDzs+d3fTh8H0ANzNIwDAISGUj4ZWrXvNZbszRsk5wGBL0wcI9GsA5W7azTetm9h9+4UW5O/AWObm8wHESeKG8GUbt7hsd0YoqUngYEvz3xHo93C58QF6Tlhcl09OP1i3/s9koY6A7e6WAWEW+G2p0c1KIgJMl7aVFwj3h4f0L9B7G9MFlWlfoxZLev4PgT7ndpGY+f9GyowvlwLdbM4dIEvbepCB97ps2mKihmjdhs0zMWJHJb4bgOpSuUawU7H4k3NNN5tTB3CLtuWAIWJ5Q3j1bY+5YWxwd/NVxPxrAFE37I2AgOOS+GPRuoa9btotBHM2B3CTtjUOh4SFNW41PgBE6zZshWWtBvC6WzaBLN2M6Zm5pJvNiQPEdjXdAvdpW2Dws0LB5aE1G//ipl0AiKz55kH20uUAnnTZdJAFPxRraWqcC7rZrD7Qpm0N3wuw6zn02dp1K+ruJPDrYdI/N5t0s1lzgCLStkyA/ilSv+FHLtudFPHdzV9g5rsBaC6bftEicfVs0c1mxQEGdjW9QxA9CveZO3OaeYu3bFrLjIdBmO+y6XZAfnw26GZFnwMM7mr6lCDaCZcbn4FXWVr1c5l2Dddv3GlC1gF40WXTNbNFNytaBDgpwdLs/nPovyyi60uFfdO9rzGoJbVfEHC1y6aziStjY7HoZkVxgKLStkqUf1dknuJ/mpZ+feWaxrjLdt13gCxt67cAVrlsOkOEL4brNv7cZbuuYnBX83Ug/hkBfjftFotu5qoDxHd953Im8TDcZ+50gPDxSN3GF1y2WxRkzyo8CmCxy6b7JOia8voN290y6NokMN6y6fNM4mm43/gvWSTWnCqNDwDl9RteVBVlDYAWl01XCvC2WEuTa0mzGUeAYm6MEPBggvSbTtVzePx0oy8e9P4E4P/htm0C3xtKGF+m9zaaM7MzA/Ts2BzSvPJ+gP/7TOw4oOiz39lCkelmW6WqX1d+SePgdA1M2wHmirZ1qqJU6WbTcoC5pm2dqujf03SRwvRoKdHNCg5JxaNt4fl8aVunKipWNbxC0OoZeMZl09Omm+UdAbK0rf8N4CuFPmRq43ggbPq+8HYRaSwlulleDlDqtK1TFcWkmwnN84nQxV/vnurGKR1gqKXpAgn6HUqctnWqIran6YOQ9Cu4TDcDcIyJr56KbjbpHCDW0vRXElQM2tZht2lbpyoiqxqeKAbdDMBiYnomvnvTpAmqnA4Qb2n6OkBbAERcLtiTMPTVxaBtnaqIrPnmQRj6WhSDbsZ4yG5LZzgOAbGW5usBfsDlwgDA3eGE/o8z3b2aCo1/3xhMKfp/syQuYMYyENcAXM3MQYADLKEA8ADssb9BBgCDBCyAkkSUAKgDTO1C8BFBtM9vac803tOYKGa5i3o+Anx9pL7hV+OvOjrAYEvTMwR6t4tPNxi4OVq/8ccu2gQANDQ01GZi1ueY+UMs5ZlSciVLy+P2cwCAhKILQf0s6DCE8rhfCf7bph80dLj9nMGWTV8k4C4Arv0OBp6J1m98z/jrOSLAphYAdS49u58FXeumBPtXb/nGB2DSRmlZq6UlAwC7ZbpAEIRQhkkVu1RFafrunZv+4Jbl+O7b38VSPuQi3eyFSP3GNeMv5ogAzQ0E/o4LDz1AsD4arv/m/pmbahRf+0pms2kZX2LTKpu5PfchFCWheLS7v3/XpvVu2BtsaT4T4EcJuGCmtphpY3T1hubx1x0dgJ+7wx/3pLdjJgxexhZdVz5d9a51Q9O2kcWttzRcy5nMT6VlBWdqazYgFHXI41Fv+u5dzTPOZ/Ts2BzSNOuBGeok7Aobvvc4bbTl3AcY3t1UbTHtYmBRwY9j3Bk+etat9KlPWQV/dxy+dsuGvzVS6XvnLMpPFwQoXv/n77hr009nauokutm3pvH1DtNSVleuWXfc6cOcy8CyuoYOC/RRAIXk4jPE/DeR1RtvcaPxAcDKGD885RofABiQhnGXG6aIiCP1DY0AX89AIdvlaUBenavxgSk2gsrrN7zIoBuR3yyrR7C4Kry64f8VUMApIaV0lVs3q7CsgJvmIvUNvyIh3wcgn5UHA/S5qc4WTJkNjNZveAg8+YSQCC9LRdaHVq9/No+CFQRV87ptctag+twve2TVbX9SFaUOU9HNCN+O1G/45VT28koHh+s3fgvAr52fgwcT0C8vv/S2N/OxVSi8ZWWsaG6fvio+FI8GLVBWlMGr7NJ17eGE/m6A/t3pcyZ+JLxK/1/52MrLAYiIU5rn8wCdvHefZtBtoboN1xWXs0fwBUPwBsMQoqQUbRxBQoEWCMIXCqGYJ+/ovY3pcN36Gxl0G4CT1E/osbRH+0y+VLq805ALL/76MDN/LLb39kuF5FrVkHsCl9/WBmwouPCFg6BqGlStHGZGh6lnYBkG5m4DaDwIiscD1atB9fhm7chtVuauqe9Pm3/uUaxLpaC2yKXr90ay8nf5oKA8dPaBe7J/5gAE1euF6vWCpYRlGLBMHdIwIOXsckdJUaCoHvuPxwOaw+iUneVnZ/qFdUi3iQizBhJi1BkAgFlCmhakZYKlBWlaYJZgKcE8vUhBRCAhQCRAigKhqhBCgVAVEJX+cJQPTlkHGA8iAcUjoHgm5k+YAbAFlgyAMeIPI45BRNm/AYBAggBSsv9/a6PoDtBw63cWx/S06idaAgDSMqtYqD6FcMwugNkzxEqqq0tte/DB4simEcFu0BLptNde26gtWGDWhsjym1CrAMBiLCZppoWi9gBAirk1ovnMpjtuO1bMsszQxxvFV28xLhdSvltaqGeSK1nyPEguY0gfs1QKmacRkSQSOgQNC9AgkzjsCwWvKgE1u2mCkR5KbAXJ5Sw5atcLayxl/q5IAJGwCCJNCiVA1EcsDggFLZYltt9xj+dPwPQPzxRUs42NjWq8T7+RWH6CpayzTHM+iixsVFZRiVPZAYb7+4r7CCJWVLWbhNjNJB4OV2r3NTbmT7jJq2a//pX111mSvyZN8xJmqUy/tIXDyQHecWYvli1IoL0vgEMdEfQPzc1uYUUog7OqY6ipTOJIVwgvv1E57o5ZcIBxICEsRfXsZVX53h0/bHpwyvsn+3DdzRs/rBvmv0rLKDwj6BLGO8CiygS+9OGxdMKBIS+O9QbROeBH50AA7f0BDKVy7x4yKWirWouB8NkAgIrY66jpfQ7EufNXIb+OmookFpYnsbA8hcXzEigPZcbcc8/vz0db38lUhdl3gJMhFLWfvNr/nMwRck4Cb/3yuifT6dSVxSna9KF5Jg535aEMykMZXJTlLjMDj+9djB37qh1tvFH7YfRGTnAskvOrkNaiWN7mTFJ+9wUduOqSY1OuCjxqaZ1jlZZZgaT1m1u/vG7bHXdvvsrpHsfJyK1fWf8LS9dLrvEB4I3OMLa9tAj9idxhnwi47GznMxGGGhzT+CPojV4IQ3UmGq1e2T1p4/cnvNj64iIc7QpNXvg5AcPS9Q987eb1jsoqjhGALfOTxS3UzLD9lRpsf6UGFcEMllfHsWxBHNXlScyLpKEIe9mx/7jzOQvdk7uRdE8YHnN4wvUDxyO47BzboSxJ6I350DEQwNGuMA53hCd1xlKBaVjXAPjs+OuODkAltAPCzDnL05/wov9gFVoOVgEAFMFYUJ6EIhjHe517sz/dC0XqsMTYOYIiM/Bnehy/81jLUrx0ZB5MSegaCMCSedbPNHcgiwEhnCvRcQjw+MsGSsUJ7KRPnvdKQntfGY71BHOuTgUbWNb+OIhPjNfEEss6noCQzqsnZkJrTxDtfWX5Nz4As4CyFxVE8PjLHN9Z5BgBFNWT8YUjyCSGIC1XmF3Thp4chlAUCMW9Tct5sVcRyHRjMLQCAFAeP5Cz908X0rKgDxf1HEleEIoCb1kIQlUzTp/nrFWhqPBHojAzGRip5Kxn20bAkpGKx6D5/PD4/HBrgz6Q7kYgPeXh2cLBDCOdhpFOzukIQIoCzefPJsty19kU3Yqgen1QvV5YpgUzk4Zl6ODZdgZm6KkkjHQaHq8PiqZBqKWVx5LSgqXrMFLJk7KPszuMkhBQPRpUzQvhUfN6fp61SFBUFYpq0/KltCANA5Zp2ClYac3KhIdZQk8ngXQSQihZR/BAURWQmNUNSjv9bJiwLBOWkYE0Z3moJMoOjTYvQXg8ENOog2l1IyEUCK8C1evLXmGwlJCWZeffszl4+2+Z9Q0GmDGmb9hpOhCNy70TAcL+camYswCWlBZkOoURljQJAaHYjiAUARKqTSETtr1CJ7XMbPdkKSGlBEsLbFmQWd4By/wa3B8pB0sTbElIZuAkjsJIvZzMV5hYLyJbL9n6Gf2dAm5EGJfiKIGEAmWWe+HJYClhSQkg18x7JM9PI/87UX8MjLom8yhvwA0IRQEUxcVjnu6itAbSomKkYUf+dxpAib048jRmHwU5gFZiyY7TmIhC2yivIYAI+OyV+7GiJobBYS8Od9h74K09QQwUsA/OCkPWJMEeCaU9AEpPb85Qf24CZ9amcaxLw4FWP3pjczPAzosYWLkkhcULdBxu82L3a9NLBgWYscQwkCGBY6oKs4C5XXkwgyVVCSyvjmN5dRzRsgwOtEVw31Nn57Uwy8sBFkaTWFFjv5wjWpbBqrN6sOose+csrSvoHAigoz+A5/cvQF/c52hDRjNIXn0MMmpvSFFGgX9rLdTDzpXm9VhYe14nHnt6rL0lCzK44YP2Bs47s0m9/riKNzt8aOvR0N6n4XiXhngy909jUtG99P2IV14MAIj0voyq1idBnJtIEw6YWLRAR02ljtoqHUur06gIn7j/nRcAXX0ajnWP7RDvu6gNO19biIzh7Ozn6jquGUrAl22tXkXBfeEw+hTn4DwvnMaas7tQneUm+LSJq5GVtTHMj6bQNTD1scq8HKA37sNgQkM0OJGz6dMsLFswhGULhnD24kH8y8MXO9pIfbB9tPEBgL0WUle1IfizFY6R4COr38Sly3vx2NPLx1z3OvABKsImKsIJXHJ21jYDj+2swFO7nTOCbSuvw+D8E++z6F5yFXRfORbtdz5Kd2VdDB9Z2zflJqTmmdjlrnxHG6JBHQ8/N1FoLcA8pvEBYJ5l4RNDCfwk6iwpfNP796M86LirO4qBhDdvllRecwDDErhry4V45Pkz8MqRSgynnf0moJlwOpTCXgvWwomnmtlrwap1PlUW8Dr3xoPH/fj9c+Xoi+X2XSJg7YXOb1cxtfCYxh/B4Px6mJpzNFp7UWzSxu+LqdiysxyH25yjX5nPeWm61DDGNP7oddOEV068TpS7XobTKl45UolHnj8DP9pyAQwzv+ld3svAtK5g98Eq7D5YBSJGVTg9GoaqK5LweSw8u6/aMQtHJtnrLodKJN25oFv3LoZHcZ7QbNtVjm27ylEZMbFycRJn1qZRW6VjQYWOkci574hzOtjQcqveGVoUqj5R0GTfkTJccbE9BFoS6OrX0Naj4Y02Hw4cC0zqjIc7wnhij/OLQ/QcXiWJYTlUCzPw0M4zccUFHUjrCjr6A6PDb0/cNy1+rjMhRFrqZFurzITumB/dMT9ePjKeCOkAS8CzPwLj3LG7emLQC9HufIS+a9CPn247B6C+nIv2vpiK52NhPP+qHS4VhVFdaTtBa5dzCPQluyCsNKQytrcKKw1vstPxOw9vr8Se18tgWoSOPg2WlV9FE8H+DTnQqqroUwQqrbGO/rLmg5ljl29fazn2tRau0y2ldGxrx+6nJ5NRt7dKfE9Xw/NaFLAIYILSEUDg0SWgKSpTdTjpkwuWRTje7cWbnd6cM2CSOmoOPTSGAEpsofbgf0BI51DNDBzt8OF4tzfvxgcARZu87AYR7guH0ZpNbFkgvOjzYkuZq7oSABhGethxQuToFdI0/OlEAr6yoGvpV9IF/E/UwvdkDaAyKJPfGKUFgpAy5mqyJdq9B/7hNsQq7GVEpP9VeIede/90IRQVWmDqZWGvouDH0Qj8zDBABS0B8wEzQx8egjRNxyVBzsHL0jMYNnR4fD54fAHXaGJkkR0F8r1fCPhDUeipFMxMatoHPcfDO9yJ+S43OgCbfeP1QfMHCuo8KbcZWMwwMmkYqRSYZU5thckngcwwUikY6TRUzQNF9UHVPK5FhbxBBC0QgMfvh5FOwdIzc85UGg+hKFA0Lzw+35ydHGZm+8i8rsMyMnl1lvxWAcy2MENGR2bYzkMrHhVCUSFUFSSUWSGSEpHds/wBsGXBNHRI04A0zVlnLAkhQCP6ANr0cvEzArOdErfMLC/BAltGwbSMaWQD2X6oNXY9SkQgRbXz1YIAyub2BTAy15zgJCP8AAYYNncAUoIl7DP+UiIQjcJp/UiKAo/ix8gLOpnZdgTLArMFadl5d4xyEgqrGZtDYPMJhCCQooDI1gYQQslTEIKRHBwYvZ+EAEby+vapz5Py/2O/Zx9pZzD4hMYBW5AW29wElxzetXQwM4NNexY9F8GZyJZpcdIHGAFnCRknUv9j9QFAyDque9HsBE+hNPE24gNkG5pOhOrSIL7PLU7zAd7mKMgBvFrphrLTsFFoG+XNB/ji1R04Z2kKg0Mq9rf6ceCYH0c7vOgrJBevMniJAWgMtHpAyekFoEuW92LZ/CG09ZXhcEcYfUPOSZhiozKUxvLqOGorh3GkK4SX3pg3LTtlAM5gIAPgKOVmNTqWIWJgWXUGKxencPaSFKIhE68d9ePeR6vd4wPUVOo4Z6mdzYuGTFx2/hAuO99OmqR1gfZeDce7vfjjS2H0DOZwiHkW5A2D4Ep79UBpATwSBr2WY89ek3jPpTHsOFg55ocsqkzgmrVvAADqVtichMGEltUHsJMjbX1lGEpNMhkkBcer3nVCHyD+Omp7dk6hD2CgtnI4qw+QxOJ5iTHp8boVPeiJ+cfoAxABH1ozgO17I0jnSHpdyIQbGBhx4W4GfiIYuc4pVZUbuOLiGBbN11EzT4fPocefuyyFhZU6OnqnVljNywF6Bj3oj6tjCBAj8GkSZ9akcWZNGuefMYxv/2yJow3r6jhQeeL77JPAx+Ogo/OA1MTp2Cfe24fV5w5hx8Gx1z3qRLeOBnVEg/24cFm/bZuBrS8uxrOv5qcP0Fb1LmQ8kdz6AOd34KpLp6cP8KE1AygPmfjltqoJnwUB3IATjQ8A8wFcz4Q7c2g9funjHY7tcDL6Yh705uqI45BXDNZNwvfuX4RfbqvC3v1lSKScNz3KfNKxktgngcUTySTsk+ClzsJgZT7n3nikK4RtLy6alPBABNSvdFEf4Owp9AGGvNi6N7c+QNDv/FvOAOBzaOczeKxTjIAICPicx/hESsHe/WX45bYqfP+BWhh5JhXyXgamMgIv7AvhhX0hEAELym1qVE1VBrVVOnwa46k9EcdxhwwCJAGKA8kh41zQx3ZUOPZ2ANj+5xps/3MNykMZnLUwhqXzE6iuSKIqkjqhD3DMPX2A/cejWHNOFwD7BHJPzI+O/gDe7A7iUGcEA5M444FWPx7bUeH4WSbHGC0BOPVxZuCBrVW4sm4QyYyC9h4NbT1etPd40DWgTetwlrM+gFBM5MgfjxSks19DZ7+GPfvzeIuLRaBXveCL02MuU58KHHMOVZ19Gu55qBqB8typh4EhL1qG5qPloP1eJUUw5kdTUIXE8b7J9AEysMTYRptMH2BLyxK8dKQSpiXQPejP+4g4S+Ceh52HIQA4AqCHGFXjiBx7yNkBAOCVQ2V45dA0XpmkKI5zS8chQPUHBt3eJhFbwqCXffY2IQPU6oG4P4qp8p+WPjn/bcy9ktDRH8Cx3qn0AZ6YoA9wRvvjk+oDHOsJoqO/AHEIAOYUZTcI+AnZjgDYVdNCwMOuH1shePyBmNMnjr1c9XhSCIaQGR5y79BnhiAeigCPhu2npvOryMzwMEgIKB733hkwL/YqytJd6A+vBABUFEEfwDJ06Mmp9QG6AfxQMAKwl3+uS0oQwVsWgqp6HF81kzPMq5oGxVMBM52CkXYvDw9zkvjmCEZ6aAiq5oEnEHTtnQH+TA9qe9xtdMBOYhlpO4VeCNx+4QIRQc2DyzHpJJCI4PEHoPr8sHQDlpGBaehzoH3DMHUdptEPVfNC1byuRgQ3YOn2ewxMIzOH77Gkgnkbee4Ekv0yBK8GLxjSsiBNE5Zpp4XZstyLEBOfDqEIOw2reCBUFYqLcjFuQfF4AEEgVQFb5ugR8mJVi31c3JawV1SblyEUBYXO3aZRk2QTQRQV6kkTaVsP4KQ8PI+cgZejEWNUJ+CkH5H9x6gugK0NIOwfN5JDLxBM9AtirgFQA2AhgMJptDYGAHQCaGeidmL+TM47iUZfIDGmLFltAWmdVCdS2sfRR+vlZC+hEx13pF6yWgC2NoBwlYDjWlcaIYTMoUTAKIQhv9n0LydeYnXzzXd6/f5UlcrmfKkIElJGhZDEoBAAEHhISsFSiEFhSTZJ7U6l/D133fUPo9P4hq9+ZymrlNsBcmBU1KH0ghaAtwkfINuQJ71W5TRGcJoP8DZHYXwAT+kwcTXVKolXugjB0NTSqZdC2yh/fYD378eK6hhiSQ2H2iM43JnVByhAq58VhlWTBDQJ0R6AyJFUckKZz8SiyhPn4BdEUxhMaLj3iXMRT87NkjAS0PG3H3oN0TIdXYP+Ud2E433BnAdonRBgxlLDQIYIraqnMH2AUFYfYGEcZ9XEEAnoONAexX1/WOmyPkC1vZMYCehj9AEyhoLOAT/a+8om1wco15H8WOsYfQDf1lp4JtEHeNd5nVhclcDC8iRC/ol7ZOWhDM5fMoDnX1+Qz89wHectHRg9qj3CE1h7nn3YZCjlQedAAK09Qez8S259gPN0HZ8cpw/wi3AIvYrz/fPCaaw5pws1FcNYWJ5y7PErawbz1gfIawjojftyKoF4PRaWzk/gned24ab3789pI/WBtgn6AOmr2sA50r4fWd2K913chhU1McfGBwDTEnMq0f5mVxCm0zFe2ASSFTUxXHlxGz5c3+p4T5mUuCbhoA+QyL2FfNP79+Od53Rh6fxEznA/MJS/PkBeEcCwBH605QKcv6R/NAQHHc68j+gDjE/EsNeCVZ1bH8BJJSTgdW503VRwtCuIQx0R/OVYeUFDkNto7y/DD353Ic5bPICzqmNYtiDhOB/IpQ+wJIcOwBLDgo8Z6XGTnMn0ARJpz+gQtK+1ojj6AHsOVWHPIVsfYF44g+ryJKor7VDk95iu6gM8kdUHUASjczCAzn47B98xMLVit6nmIBLMAKaqsuJw4mFgyIudf1mInX9ZCEUwqsuHbd2EihQWRpOwJE1LH8BpHmDrA5yBK87vRMpQ0TngR0dfGToGAuiNe93TBwBwCDZhxRHMhJ6YDz0xH1456kx2GINc+gADWk59gO4RfYDCEff7066f+kwmA12hwNAQgJxjjiUJx/uCON6XB0cCtj5Ar6Jg3rhzjpPrA1RgX2sedT4RB5wuOnY/SWIDgInUmBlgvD6A2p6fPkChYNA3GhvdfwHlXXf9Q4ZB69y0aRDhF+EQ3vR4wCBYIOz1+rAl6LY+ABKQ2Oj0Qc7aX7++eRUx/5zA57taFEWCVeStD1AAegD846bNDQ+4bfhkNHzjOzcw0Q8ATI8DngM+5mym3O1j4ngVjM9u+l7DXqePcy7Ed+z4Q0d1zRd/XBEdOEqECwBMK+5MLBC53ev7Qfi+yep1t393Q9Hfav7HnU/9+coPvPvHlqVIABdi5HTqDGESQbrb+IdA+KrmN7707U3/3J7rpnxffkMN65reyaBPA7gaQK07ZZw24gA9QZD3e/zmfxUj5OeDm2++0xv0J/6KCJ8G+IMAnLXdZg9tTPQICA80N298Pp8vTMvlbvv6t5dLRVwBxhUALgJwDmyaezGgAzgE0D6Ad0LijwePrnj5wQc/VTr7rwCuvfY3yoplBy+GwBUArYU9dK5A8XRoLsdQAAAAoUlEQVTChwDsB/AKMz3Lgv54++0b3ijUiGsxZ92625cQ8TkkuRaEagLPZ6b5IFQRsZcYAYDVkRQsg1ICnGaGzkTDBB4C0A5GDxN1g9EGBa97vfobhbwLt5TQ2NiomklluQXlbBBqiXk+BOaDUc2gEDGXEUGTIB+B/YCdmgbIZEKSmTJg9BBxN4O6wehgQW3M9Prmzeudd5dO4zRO4zTyxv8HM00sd442zbcAAAAASUVORK5CYII=;" parent="1" vertex="1">
          <mxGeometry x="545" y="60" width="44.71" height="44.71" as="geometry" />
        </mxCell>
      </root>
    </mxGraphModel>
  </diagram>
</mxfile>
